<?xml version="1.0" encoding="UTF-8"?><svg xmlns="http://www.w3.org/2000/svg" viewBox="0 0 180 180"><defs><style>.d,.e{fill:#fff;}.f{isolation:isolate;}.e{stroke:#b2b2b2;}.e,.g,.h,.i,.j,.k,.l,.m{stroke-miterlimit:10;}.e,.h,.i{stroke-width:.5px;}.n,.i{fill:#232323;}.g{stroke-width:2px;}.g,.h,.j,.k,.l,.m{fill:none;}.g,.h,.m{stroke:#fff;}.i{stroke:#353535;}.j{stroke:#f9ff00;}.j,.k,.l{stroke-width:10px;}.k{stroke:red;}.l{stroke:#007511;}.m{stroke-width:4px;}</style></defs><g id="a"/><g id="b"><g id="c"><g><g><circle class="d" cx="90" cy="90" r="89.5"/><path d="M90,1c49.07,0,89,39.93,89,89s-39.93,89-89,89S1,139.07,1,90,40.93,1,90,1m0-1C40.29,0,0,40.29,0,90s40.29,90,90,90,90-40.29,90-90S139.71,0,90,0h0Z"/></g><g><circle class="n" cx="90.1" cy="90" r="89.62"/><path class="j" d="M10.54,76.13c-7.47,42.38,18.97,77.87,51.45,89.57"/><path class="k" d="M38.07,28.23c-15.65,13.13-24.49,30.81-27.56,48.08"/><path class="l" d="M62.99,166.07c22.47,8.04,47.61,5.72,67.64-5.84,34.96-20.18,54.07-68.16,29.61-110.51"/><line class="m" x1="143.81" y1="26" x2="135.43" y2="35.99"/><line class="m" x1="151.17" y1="54.75" x2="162.46" y2="48.22"/><line class="m" x1="172.39" y1="75.49" x2="159.54" y2="77.76"/><line class="m" x1="172.39" y1="104.51" x2="159.54" y2="102.24"/><line class="m" x1="162.46" y1="131.78" x2="151.17" y2="125.26"/><line class="m" x1="143.81" y1="154.01" x2="135.43" y2="144.02"/><line class="m" x1="118.68" y1="168.51" x2="114.22" y2="156.26"/><line class="m" x1="90.35" y1="173.66" x2="90.35" y2="160.3"/><line class="m" x1="61.53" y1="168.51" x2="65.99" y2="156.26"/><line class="m" x1="36.4" y1="154" x2="44.78" y2="144.01"/><line class="m" x1="17.74" y1="131.78" x2="29.04" y2="125.26"/><line class="m" x1="7.82" y1="104.51" x2="20.66" y2="102.24"/><line class="m" x1="7.82" y1="75.49" x2="20.66" y2="77.76"/><line class="m" x1="17.74" y1="48.22" x2="29.04" y2="54.74"/><line class="m" x1="36.4" y1="25.99" x2="44.78" y2="35.99"/><line class="g" x1="154.11" y1="36.3" x2="147.3" y2="42.01"/><line class="m" x1="118.68" y1="11.49" x2="114.22" y2="23.74"/><line class="g" x1="131.88" y1="17.64" x2="127.43" y2="25.35"/><line class="m" x1="90.35" y1="6.67" x2="90.35" y2="19.47"/><line class="g" x1="104.61" y1="7.72" x2="103.07" y2="16.48"/><line class="g" x1="97.39" y1="6.77" x2="96.84" y2="12.97"/><line class="g" x1="111.73" y1="9.3" x2="110.12" y2="15.31"/><line class="g" x1="125.41" y1="14.28" x2="122.78" y2="19.92"/><line class="g" x1="138.03" y1="21.56" x2="134.46" y2="26.66"/><line class="g" x1="168.62" y1="61.43" x2="160.26" y2="64.47"/><line class="g" x1="173.85" y1="90.16" x2="164.94" y2="90.17"/><line class="g" x1="168.62" y1="118.58" x2="160.26" y2="115.54"/><line class="g" x1="154.11" y1="143.71" x2="147.29" y2="137.99"/><line class="g" x1="131.88" y1="162.36" x2="127.43" y2="154.66"/><line class="g" x1="104.61" y1="172.28" x2="103.06" y2="163.52"/><line class="g" x1="75.59" y1="172.28" x2="77.14" y2="163.52"/><line class="g" x1="48.33" y1="162.36" x2="52.77" y2="154.65"/><line class="g" x1="26.1" y1="143.71" x2="32.91" y2="137.99"/><line class="g" x1="11.59" y1="118.58" x2="19.95" y2="115.53"/><line class="g" x1="6.3" y1="90.16" x2="15.2" y2="90.16"/><line class="g" x1="11.59" y1="61.42" x2="19.95" y2="64.46"/><line class="g" x1="26.1" y1="36.29" x2="32.91" y2="42.01"/><g class="f"><path class="d" d="M127.62,46.56v.94h-5.27c0-.24,.03-.46,.11-.68,.13-.36,.35-.71,.64-1.06,.29-.35,.72-.75,1.28-1.21,.87-.71,1.45-1.27,1.76-1.69,.3-.41,.46-.81,.46-1.18s-.14-.71-.42-.98c-.28-.27-.64-.4-1.08-.4-.47,0-.85,.14-1.13,.42-.28,.28-.43,.67-.43,1.17l-1.01-.1c.07-.75,.33-1.32,.78-1.71,.45-.39,1.05-.59,1.81-.59s1.37,.21,1.82,.64c.45,.42,.67,.95,.67,1.58,0,.32-.07,.63-.2,.94-.13,.31-.35,.63-.65,.97-.3,.34-.8,.81-1.51,1.4-.59,.49-.96,.83-1.13,1-.17,.18-.3,.35-.41,.53h3.91Z"/><path class="d" d="M128.67,43.57c0-.94,.1-1.7,.29-2.27,.19-.57,.48-1.02,.86-1.33s.86-.47,1.44-.47c.43,0,.8,.09,1.12,.26,.32,.17,.59,.42,.8,.75,.21,.32,.38,.72,.49,1.19,.12,.46,.18,1.09,.18,1.88,0,.94-.1,1.69-.29,2.26-.19,.57-.48,1.02-.86,1.33-.38,.31-.87,.47-1.45,.47-.77,0-1.37-.28-1.81-.83-.53-.66-.79-1.74-.79-3.24Zm1.01,0c0,1.31,.15,2.18,.46,2.61,.31,.43,.68,.65,1.13,.65s.83-.22,1.13-.65c.31-.43,.46-1.3,.46-2.61s-.15-2.18-.46-2.61c-.31-.43-.69-.65-1.14-.65s-.81,.19-1.08,.57c-.34,.49-.51,1.38-.51,2.69Z"/></g><g class="f"><path class="h" d="M127.62,46.56v.94h-5.27c0-.24,.03-.46,.11-.68,.13-.36,.35-.71,.64-1.06,.29-.35,.72-.75,1.28-1.21,.87-.71,1.45-1.27,1.76-1.69,.3-.41,.46-.81,.46-1.18s-.14-.71-.42-.98c-.28-.27-.64-.4-1.08-.4-.47,0-.85,.14-1.13,.42-.28,.28-.43,.67-.43,1.17l-1.01-.1c.07-.75,.33-1.32,.78-1.71,.45-.39,1.05-.59,1.81-.59s1.37,.21,1.82,.64c.45,.42,.67,.95,.67,1.58,0,.32-.07,.63-.2,.94-.13,.31-.35,.63-.65,.97-.3,.34-.8,.81-1.51,1.4-.59,.49-.96,.83-1.13,1-.17,.18-.3,.35-.41,.53h3.91Z"/><path class="h" d="M128.67,43.57c0-.94,.1-1.7,.29-2.27,.19-.57,.48-1.02,.86-1.33s.86-.47,1.44-.47c.43,0,.8,.09,1.12,.26,.32,.17,.59,.42,.8,.75,.21,.32,.38,.72,.49,1.19,.12,.46,.18,1.09,.18,1.88,0,.94-.1,1.69-.29,2.26-.19,.57-.48,1.02-.86,1.33-.38,.31-.87,.47-1.45,.47-.77,0-1.37-.28-1.81-.83-.53-.66-.79-1.74-.79-3.24Zm1.01,0c0,1.31,.15,2.18,.46,2.61,.31,.43,.68,.65,1.13,.65s.83-.22,1.13-.65c.31-.43,.46-1.3,.46-2.61s-.15-2.18-.46-2.61c-.31-.43-.69-.65-1.14-.65s-.81,.19-1.08,.57c-.34,.49-.51,1.38-.51,2.69Z"/></g><g class="f"><path class="d" d="M144.82,82.85v-1.91h-3.46v-.9l3.64-5.17h.8v5.17h1.08v.9h-1.08v1.91h-.98Zm0-2.8v-3.59l-2.5,3.59h2.5Z"/><path class="d" d="M147.87,78.92c0-.94,.1-1.7,.29-2.27,.19-.57,.48-1.02,.86-1.33s.86-.47,1.44-.47c.43,0,.8,.09,1.12,.26,.32,.17,.59,.42,.8,.75,.21,.32,.38,.72,.49,1.19,.12,.46,.18,1.09,.18,1.88,0,.94-.1,1.69-.29,2.26-.19,.57-.48,1.02-.86,1.33-.38,.31-.87,.47-1.45,.47-.77,0-1.37-.28-1.81-.83-.53-.66-.79-1.74-.79-3.24Zm1.01,0c0,1.31,.15,2.18,.46,2.61,.31,.43,.68,.65,1.13,.65s.83-.22,1.13-.65c.31-.43,.46-1.3,.46-2.61s-.15-2.18-.46-2.61c-.31-.43-.69-.65-1.14-.65s-.81,.19-1.08,.57c-.34,.49-.51,1.38-.51,2.69Z"/></g><g class="f"><path class="h" d="M144.82,82.85v-1.91h-3.46v-.9l3.64-5.17h.8v5.17h1.08v.9h-1.08v1.91h-.98Zm0-2.8v-3.59l-2.5,3.59h2.5Z"/><path class="h" d="M147.87,78.92c0-.94,.1-1.7,.29-2.27,.19-.57,.48-1.02,.86-1.33s.86-.47,1.44-.47c.43,0,.8,.09,1.12,.26,.32,.17,.59,.42,.8,.75,.21,.32,.38,.72,.49,1.19,.12,.46,.18,1.09,.18,1.88,0,.94-.1,1.69-.29,2.26-.19,.57-.48,1.02-.86,1.33-.38,.31-.87,.47-1.45,.47-.77,0-1.37-.28-1.81-.83-.53-.66-.79-1.74-.79-3.24Zm1.01,0c0,1.31,.15,2.18,.46,2.61,.31,.43,.68,.65,1.13,.65s.83-.22,1.13-.65c.31-.43,.46-1.3,.46-2.61s-.15-2.18-.46-2.61c-.31-.43-.69-.65-1.14-.65s-.81,.19-1.08,.57c-.34,.49-.51,1.38-.51,2.69Z"/></g><g class="f"><path class="d" d="M132.97,119.24l-.97,.08c-.09-.38-.21-.66-.37-.84-.26-.28-.59-.42-.98-.42-.31,0-.58,.09-.82,.26-.31,.22-.55,.55-.73,.98-.18,.43-.27,1.04-.28,1.84,.24-.36,.52-.62,.86-.8,.34-.17,.7-.26,1.07-.26,.65,0,1.21,.24,1.67,.72,.46,.48,.69,1.1,.69,1.86,0,.5-.11,.96-.32,1.39s-.51,.76-.89,.99c-.38,.23-.8,.34-1.28,.34-.82,0-1.48-.3-2-.9s-.77-1.59-.77-2.97c0-1.54,.28-2.66,.85-3.36,.5-.61,1.17-.91,2.01-.91,.63,0,1.14,.18,1.54,.53s.64,.84,.72,1.46Zm-4,3.44c0,.34,.07,.66,.21,.97,.14,.31,.34,.54,.6,.7,.26,.16,.53,.24,.81,.24,.41,0,.77-.17,1.07-.5,.3-.33,.45-.79,.45-1.36s-.15-.99-.44-1.3c-.29-.32-.66-.48-1.11-.48s-.82,.16-1.12,.48c-.31,.32-.46,.73-.46,1.25Z"/><path class="d" d="M134.08,121.33c0-.94,.1-1.7,.29-2.27,.19-.57,.48-1.02,.86-1.33s.86-.47,1.44-.47c.43,0,.8,.09,1.12,.26,.32,.17,.59,.42,.8,.75,.21,.32,.38,.72,.49,1.19,.12,.46,.18,1.09,.18,1.88,0,.94-.1,1.69-.29,2.26-.19,.57-.48,1.02-.86,1.33-.38,.31-.87,.47-1.45,.47-.77,0-1.37-.28-1.81-.83-.53-.66-.79-1.74-.79-3.24Zm1.01,0c0,1.31,.15,2.18,.46,2.61,.31,.43,.68,.65,1.13,.65s.83-.22,1.13-.65c.31-.43,.46-1.3,.46-2.61s-.15-2.18-.46-2.61c-.31-.43-.69-.65-1.14-.65s-.81,.19-1.08,.57c-.34,.49-.51,1.38-.51,2.69Z"/></g><g class="f"><path class="h" d="M132.97,119.24l-.97,.08c-.09-.38-.21-.66-.37-.84-.26-.28-.59-.42-.98-.42-.31,0-.58,.09-.82,.26-.31,.22-.55,.55-.73,.98-.18,.43-.27,1.04-.28,1.84,.24-.36,.52-.62,.86-.8,.34-.17,.7-.26,1.07-.26,.65,0,1.21,.24,1.67,.72,.46,.48,.69,1.1,.69,1.86,0,.5-.11,.96-.32,1.39s-.51,.76-.89,.99c-.38,.23-.8,.34-1.28,.34-.82,0-1.48-.3-2-.9s-.77-1.59-.77-2.97c0-1.54,.28-2.66,.85-3.36,.5-.61,1.17-.91,2.01-.91,.63,0,1.14,.18,1.54,.53s.64,.84,.72,1.46Zm-4,3.44c0,.34,.07,.66,.21,.97,.14,.31,.34,.54,.6,.7,.26,.16,.53,.24,.81,.24,.41,0,.77-.17,1.07-.5,.3-.33,.45-.79,.45-1.36s-.15-.99-.44-1.3c-.29-.32-.66-.48-1.11-.48s-.82,.16-1.12,.48c-.31,.32-.46,.73-.46,1.25Z"/><path class="h" d="M134.08,121.33c0-.94,.1-1.7,.29-2.27,.19-.57,.48-1.02,.86-1.33s.86-.47,1.44-.47c.43,0,.8,.09,1.12,.26,.32,.17,.59,.42,.8,.75,.21,.32,.38,.72,.49,1.19,.12,.46,.18,1.09,.18,1.88,0,.94-.1,1.69-.29,2.26-.19,.57-.48,1.02-.86,1.33-.38,.31-.87,.47-1.45,.47-.77,0-1.37-.28-1.81-.83-.53-.66-.79-1.74-.79-3.24Zm1.01,0c0,1.31,.15,2.18,.46,2.61,.31,.43,.68,.65,1.13,.65s.83-.22,1.13-.65c.31-.43,.46-1.3,.46-2.61s-.15-2.18-.46-2.61c-.31-.43-.69-.65-1.14-.65s-.81,.19-1.08,.57c-.34,.49-.51,1.38-.51,2.69Z"/></g><g class="f"><path class="d" d="M105.81,142.54c-.41-.15-.71-.36-.9-.64s-.29-.6-.29-.99c0-.58,.21-1.07,.63-1.46,.42-.4,.97-.59,1.66-.59s1.26,.2,1.68,.61,.64,.9,.64,1.48c0,.37-.1,.69-.29,.96-.19,.27-.49,.48-.88,.63,.49,.16,.86,.42,1.12,.77s.38,.78,.38,1.27c0,.68-.24,1.25-.72,1.72s-1.12,.7-1.9,.7-1.42-.23-1.9-.7c-.48-.47-.72-1.05-.72-1.74,0-.52,.13-.95,.39-1.3,.26-.35,.64-.59,1.12-.71Zm-.51,2.02c0,.28,.07,.55,.2,.81s.33,.46,.59,.61c.26,.14,.54,.21,.84,.21,.47,0,.85-.15,1.16-.45,.3-.3,.46-.68,.46-1.15s-.16-.86-.47-1.17-.71-.46-1.18-.46-.84,.15-1.14,.46c-.3,.3-.45,.69-.45,1.14Zm.32-3.68c0,.38,.12,.68,.36,.92,.24,.24,.56,.36,.95,.36s.69-.12,.93-.36c.24-.24,.36-.53,.36-.87s-.12-.66-.37-.9c-.25-.25-.56-.37-.93-.37s-.68,.12-.93,.36c-.25,.24-.37,.53-.37,.86Z"/><path class="d" d="M110.49,142.93c0-.94,.1-1.7,.29-2.27,.19-.57,.48-1.02,.86-1.33s.86-.47,1.44-.47c.43,0,.8,.09,1.12,.26,.32,.17,.59,.42,.8,.75,.21,.32,.38,.72,.49,1.19,.12,.46,.18,1.09,.18,1.88,0,.94-.1,1.69-.29,2.26-.19,.57-.48,1.02-.86,1.33-.38,.31-.87,.47-1.45,.47-.77,0-1.37-.28-1.81-.83-.53-.66-.79-1.74-.79-3.24Zm1.01,0c0,1.31,.15,2.18,.46,2.61,.31,.43,.68,.65,1.13,.65s.83-.22,1.13-.65c.31-.43,.46-1.3,.46-2.61s-.15-2.18-.46-2.61c-.31-.43-.69-.65-1.14-.65s-.81,.19-1.08,.57c-.34,.49-.51,1.38-.51,2.69Z"/></g><g class="f"><path class="h" d="M105.81,142.54c-.41-.15-.71-.36-.9-.64s-.29-.6-.29-.99c0-.58,.21-1.07,.63-1.46,.42-.4,.97-.59,1.66-.59s1.26,.2,1.68,.61,.64,.9,.64,1.48c0,.37-.1,.69-.29,.96-.19,.27-.49,.48-.88,.63,.49,.16,.86,.42,1.12,.77s.38,.78,.38,1.27c0,.68-.24,1.25-.72,1.72s-1.12,.7-1.9,.7-1.42-.23-1.9-.7c-.48-.47-.72-1.05-.72-1.74,0-.52,.13-.95,.39-1.3,.26-.35,.64-.59,1.12-.71Zm-.51,2.02c0,.28,.07,.55,.2,.81s.33,.46,.59,.61c.26,.14,.54,.21,.84,.21,.47,0,.85-.15,1.16-.45,.3-.3,.46-.68,.46-1.15s-.16-.86-.47-1.17-.71-.46-1.18-.46-.84,.15-1.14,.46c-.3,.3-.45,.69-.45,1.14Zm.32-3.68c0,.38,.12,.68,.36,.92,.24,.24,.56,.36,.95,.36s.69-.12,.93-.36c.24-.24,.36-.53,.36-.87s-.12-.66-.37-.9c-.25-.25-.56-.37-.93-.37s-.68,.12-.93,.36c-.25,.24-.37,.53-.37,.86Z"/><path class="h" d="M110.49,142.93c0-.94,.1-1.7,.29-2.27,.19-.57,.48-1.02,.86-1.33s.86-.47,1.44-.47c.43,0,.8,.09,1.12,.26,.32,.17,.59,.42,.8,.75,.21,.32,.38,.72,.49,1.19,.12,.46,.18,1.09,.18,1.88,0,.94-.1,1.69-.29,2.26-.19,.57-.48,1.02-.86,1.33-.38,.31-.87,.47-1.45,.47-.77,0-1.37-.28-1.81-.83-.53-.66-.79-1.74-.79-3.24Zm1.01,0c0,1.31,.15,2.18,.46,2.61,.31,.43,.68,.65,1.13,.65s.83-.22,1.13-.65c.31-.43,.46-1.3,.46-2.61s-.15-2.18-.46-2.61c-.31-.43-.69-.65-1.14-.65s-.81,.19-1.08,.57c-.34,.49-.51,1.38-.51,2.69Z"/></g><g class="f"><path class="d" d="M67.9,146.86h-.98v-6.24c-.24,.22-.54,.45-.93,.67-.38,.23-.73,.39-1.03,.51v-.95c.55-.26,1.03-.57,1.44-.93s.7-.72,.87-1.07h.63v8Z"/><path class="d" d="M70.41,142.93c0-.94,.1-1.7,.29-2.27,.19-.57,.48-1.02,.86-1.33s.86-.47,1.44-.47c.43,0,.8,.09,1.12,.26,.32,.17,.59,.42,.8,.75,.21,.32,.38,.72,.49,1.19,.12,.46,.18,1.09,.18,1.88,0,.94-.1,1.69-.29,2.26-.19,.57-.48,1.02-.86,1.33-.38,.31-.87,.47-1.45,.47-.77,0-1.37-.28-1.81-.83-.53-.66-.79-1.74-.79-3.24Zm1.01,0c0,1.31,.15,2.18,.46,2.61,.31,.43,.68,.65,1.13,.65s.83-.22,1.13-.65c.31-.43,.46-1.3,.46-2.61s-.15-2.18-.46-2.61c-.31-.43-.69-.65-1.14-.65s-.81,.19-1.08,.57c-.34,.49-.51,1.38-.51,2.69Z"/><path class="d" d="M76.6,142.93c0-.94,.1-1.7,.29-2.27,.19-.57,.48-1.02,.86-1.33s.86-.47,1.44-.47c.43,0,.8,.09,1.12,.26,.32,.17,.59,.42,.8,.75,.21,.32,.38,.72,.49,1.19,.12,.46,.18,1.09,.18,1.88,0,.94-.1,1.69-.29,2.26-.19,.57-.48,1.02-.86,1.33-.38,.31-.87,.47-1.45,.47-.77,0-1.37-.28-1.81-.83-.53-.66-.79-1.74-.79-3.24Zm1.01,0c0,1.31,.15,2.18,.46,2.61,.31,.43,.68,.65,1.13,.65s.83-.22,1.13-.65c.31-.43,.46-1.3,.46-2.61s-.15-2.18-.46-2.61c-.31-.43-.69-.65-1.14-.65s-.81,.19-1.08,.57c-.34,.49-.51,1.38-.51,2.69Z"/></g><g class="f"><path class="h" d="M67.9,146.86h-.98v-6.24c-.24,.22-.54,.45-.93,.67-.38,.23-.73,.39-1.03,.51v-.95c.55-.26,1.03-.57,1.44-.93s.7-.72,.87-1.07h.63v8Z"/><path class="h" d="M70.41,142.93c0-.94,.1-1.7,.29-2.27,.19-.57,.48-1.02,.86-1.33s.86-.47,1.44-.47c.43,0,.8,.09,1.12,.26,.32,.17,.59,.42,.8,.75,.21,.32,.38,.72,.49,1.19,.12,.46,.18,1.09,.18,1.88,0,.94-.1,1.69-.29,2.26-.19,.57-.48,1.02-.86,1.33-.38,.31-.87,.47-1.45,.47-.77,0-1.37-.28-1.81-.83-.53-.66-.79-1.74-.79-3.24Zm1.01,0c0,1.31,.15,2.18,.46,2.61,.31,.43,.68,.65,1.13,.65s.83-.22,1.13-.65c.31-.43,.46-1.3,.46-2.61s-.15-2.18-.46-2.61c-.31-.43-.69-.65-1.14-.65s-.81,.19-1.08,.57c-.34,.49-.51,1.38-.51,2.69Z"/><path class="h" d="M76.6,142.93c0-.94,.1-1.7,.29-2.27,.19-.57,.48-1.02,.86-1.33s.86-.47,1.44-.47c.43,0,.8,.09,1.12,.26,.32,.17,.59,.42,.8,.75,.21,.32,.38,.72,.49,1.19,.12,.46,.18,1.09,.18,1.88,0,.94-.1,1.69-.29,2.26-.19,.57-.48,1.02-.86,1.33-.38,.31-.87,.47-1.45,.47-.77,0-1.37-.28-1.81-.83-.53-.66-.79-1.74-.79-3.24Zm1.01,0c0,1.31,.15,2.18,.46,2.61,.31,.43,.68,.65,1.13,.65s.83-.22,1.13-.65c.31-.43,.46-1.3,.46-2.61s-.15-2.18-.46-2.61c-.31-.43-.69-.65-1.14-.65s-.81,.19-1.08,.57c-.34,.49-.51,1.38-.51,2.69Z"/></g><g class="f"><path class="d" d="M42.39,121.54h-.98v-6.24c-.24,.22-.54,.45-.93,.67-.38,.23-.73,.39-1.03,.51v-.95c.55-.26,1.03-.57,1.44-.93s.7-.72,.87-1.07h.63v8Z"/><path class="d" d="M50.03,120.6v.94h-5.27c0-.24,.03-.46,.11-.68,.13-.36,.35-.71,.64-1.06,.29-.35,.72-.75,1.28-1.21,.87-.71,1.45-1.27,1.76-1.69,.3-.41,.46-.81,.46-1.18s-.14-.71-.42-.98c-.28-.27-.64-.4-1.08-.4-.47,0-.85,.14-1.13,.42-.28,.28-.43,.67-.43,1.17l-1.01-.1c.07-.75,.33-1.32,.78-1.71,.45-.39,1.05-.59,1.81-.59s1.37,.21,1.82,.64c.45,.42,.67,.95,.67,1.58,0,.32-.07,.63-.2,.94-.13,.31-.35,.63-.65,.97-.3,.34-.8,.81-1.51,1.4-.59,.49-.96,.83-1.13,1-.17,.18-.3,.35-.41,.53h3.91Z"/><path class="d" d="M51.08,117.61c0-.94,.1-1.7,.29-2.27,.19-.57,.48-1.02,.86-1.33s.86-.47,1.44-.47c.43,0,.8,.09,1.12,.26,.32,.17,.59,.42,.8,.75,.21,.32,.38,.72,.49,1.19,.12,.46,.18,1.09,.18,1.88,0,.94-.1,1.69-.29,2.26-.19,.57-.48,1.02-.86,1.33-.38,.31-.87,.47-1.45,.47-.77,0-1.37-.28-1.81-.83-.53-.66-.79-1.74-.79-3.24Zm1.01,0c0,1.31,.15,2.18,.46,2.61,.31,.43,.68,.65,1.13,.65s.83-.22,1.13-.65c.31-.43,.46-1.3,.46-2.61s-.15-2.18-.46-2.61c-.31-.43-.69-.65-1.14-.65s-.81,.19-1.08,.57c-.34,.49-.51,1.38-.51,2.69Z"/></g><g class="f"><path class="h" d="M42.39,121.54h-.98v-6.24c-.24,.22-.54,.45-.93,.67-.38,.23-.73,.39-1.03,.51v-.95c.55-.26,1.03-.57,1.44-.93s.7-.72,.87-1.07h.63v8Z"/><path class="h" d="M50.03,120.6v.94h-5.27c0-.24,.03-.46,.11-.68,.13-.36,.35-.71,.64-1.06,.29-.35,.72-.75,1.28-1.21,.87-.71,1.45-1.27,1.76-1.69,.3-.41,.46-.81,.46-1.18s-.14-.71-.42-.98c-.28-.27-.64-.4-1.08-.4-.47,0-.85,.14-1.13,.42-.28,.28-.43,.67-.43,1.17l-1.01-.1c.07-.75,.33-1.32,.78-1.71,.45-.39,1.05-.59,1.81-.59s1.37,.21,1.82,.64c.45,.42,.67,.95,.67,1.58,0,.32-.07,.63-.2,.94-.13,.31-.35,.63-.65,.97-.3,.34-.8,.81-1.51,1.4-.59,.49-.96,.83-1.13,1-.17,.18-.3,.35-.41,.53h3.91Z"/><path class="h" d="M51.08,117.61c0-.94,.1-1.7,.29-2.27,.19-.57,.48-1.02,.86-1.33s.86-.47,1.44-.47c.43,0,.8,.09,1.12,.26,.32,.17,.59,.42,.8,.75,.21,.32,.38,.72,.49,1.19,.12,.46,.18,1.09,.18,1.88,0,.94-.1,1.69-.29,2.26-.19,.57-.48,1.02-.86,1.33-.38,.31-.87,.47-1.45,.47-.77,0-1.37-.28-1.81-.83-.53-.66-.79-1.74-.79-3.24Zm1.01,0c0,1.31,.15,2.18,.46,2.61,.31,.43,.68,.65,1.13,.65s.83-.22,1.13-.65c.31-.43,.46-1.3,.46-2.61s-.15-2.18-.46-2.61c-.31-.43-.69-.65-1.14-.65s-.81,.19-1.08,.57c-.34,.49-.51,1.38-.51,2.69Z"/></g><g class="f"><path class="d" d="M33.65,81.46h-.98v-6.24c-.24,.22-.54,.45-.93,.67-.38,.23-.73,.39-1.03,.51v-.95c.55-.26,1.03-.57,1.44-.93s.7-.72,.87-1.07h.63v8Z"/><path class="d" d="M39.3,81.46v-1.91h-3.46v-.9l3.64-5.17h.8v5.17h1.08v.9h-1.08v1.91h-.98Zm0-2.8v-3.59l-2.5,3.59h2.5Z"/><path class="d" d="M42.35,77.53c0-.94,.1-1.7,.29-2.27,.19-.57,.48-1.02,.86-1.33s.86-.47,1.44-.47c.43,0,.8,.09,1.12,.26,.32,.17,.59,.42,.8,.75,.21,.32,.38,.72,.49,1.19,.12,.46,.18,1.09,.18,1.88,0,.94-.1,1.69-.29,2.26-.19,.57-.48,1.02-.86,1.33-.38,.31-.87,.47-1.45,.47-.77,0-1.37-.28-1.81-.83-.53-.66-.79-1.74-.79-3.24Zm1.01,0c0,1.31,.15,2.18,.46,2.61,.31,.43,.68,.65,1.13,.65s.83-.22,1.13-.65c.31-.43,.46-1.3,.46-2.61s-.15-2.18-.46-2.61c-.31-.43-.69-.65-1.14-.65s-.81,.19-1.08,.57c-.34,.49-.51,1.38-.51,2.69Z"/></g><g class="f"><path class="h" d="M33.65,81.46h-.98v-6.24c-.24,.22-.54,.45-.93,.67-.38,.23-.73,.39-1.03,.51v-.95c.55-.26,1.03-.57,1.44-.93s.7-.72,.87-1.07h.63v8Z"/><path class="h" d="M39.3,81.46v-1.91h-3.46v-.9l3.64-5.17h.8v5.17h1.08v.9h-1.08v1.91h-.98Zm0-2.8v-3.59l-2.5,3.59h2.5Z"/><path class="h" d="M42.35,77.53c0-.94,.1-1.7,.29-2.27,.19-.57,.48-1.02,.86-1.33s.86-.47,1.44-.47c.43,0,.8,.09,1.12,.26,.32,.17,.59,.42,.8,.75,.21,.32,.38,.72,.49,1.19,.12,.46,.18,1.09,.18,1.88,0,.94-.1,1.69-.29,2.26-.19,.57-.48,1.02-.86,1.33-.38,.31-.87,.47-1.45,.47-.77,0-1.37-.28-1.81-.83-.53-.66-.79-1.74-.79-3.24Zm1.01,0c0,1.31,.15,2.18,.46,2.61,.31,.43,.68,.65,1.13,.65s.83-.22,1.13-.65c.31-.43,.46-1.3,.46-2.61s-.15-2.18-.46-2.61c-.31-.43-.69-.65-1.14-.65s-.81,.19-1.08,.57c-.34,.49-.51,1.38-.51,2.69Z"/></g><g class="f"><path class="d" d="M52.48,47.5h-.98v-6.24c-.24,.22-.54,.45-.93,.67-.38,.23-.73,.39-1.03,.51v-.95c.55-.26,1.03-.57,1.44-.93s.7-.72,.87-1.07h.63v8Z"/><path class="d" d="M60.06,41.48l-.97,.08c-.09-.38-.21-.66-.37-.84-.26-.28-.59-.42-.98-.42-.31,0-.58,.09-.82,.26-.31,.22-.55,.55-.73,.98-.18,.43-.27,1.04-.28,1.84,.24-.36,.52-.62,.86-.8,.34-.17,.7-.26,1.07-.26,.65,0,1.21,.24,1.67,.72,.46,.48,.69,1.1,.69,1.86,0,.5-.11,.96-.32,1.39s-.51,.76-.89,.99c-.38,.23-.8,.34-1.28,.34-.82,0-1.48-.3-2-.9s-.77-1.59-.77-2.97c0-1.54,.28-2.66,.85-3.36,.5-.61,1.17-.91,2.01-.91,.63,0,1.14,.18,1.54,.53s.64,.84,.72,1.46Zm-4,3.44c0,.34,.07,.66,.21,.97,.14,.31,.34,.54,.6,.7,.26,.16,.53,.24,.81,.24,.41,0,.77-.17,1.07-.5,.3-.33,.45-.79,.45-1.36s-.15-.99-.44-1.3c-.29-.32-.66-.48-1.11-.48s-.82,.16-1.12,.48c-.31,.32-.46,.73-.46,1.25Z"/><path class="d" d="M61.17,43.57c0-.94,.1-1.7,.29-2.27,.19-.57,.48-1.02,.86-1.33s.86-.47,1.44-.47c.43,0,.8,.09,1.12,.26,.32,.17,.59,.42,.8,.75,.21,.32,.38,.72,.49,1.19,.12,.46,.18,1.09,.18,1.88,0,.94-.1,1.69-.29,2.26-.19,.57-.48,1.02-.86,1.33-.38,.31-.87,.47-1.45,.47-.77,0-1.37-.28-1.81-.83-.53-.66-.79-1.74-.79-3.24Zm1.01,0c0,1.31,.15,2.18,.46,2.61,.31,.43,.68,.65,1.13,.65s.83-.22,1.13-.65c.31-.43,.46-1.3,.46-2.61s-.15-2.18-.46-2.61c-.31-.43-.69-.65-1.14-.65s-.81,.19-1.08,.57c-.34,.49-.51,1.38-.51,2.69Z"/></g><g class="f"><path class="h" d="M52.48,47.5h-.98v-6.24c-.24,.22-.54,.45-.93,.67-.38,.23-.73,.39-1.03,.51v-.95c.55-.26,1.03-.57,1.44-.93s.7-.72,.87-1.07h.63v8Z"/><path class="h" d="M60.06,41.48l-.97,.08c-.09-.38-.21-.66-.37-.84-.26-.28-.59-.42-.98-.42-.31,0-.58,.09-.82,.26-.31,.22-.55,.55-.73,.98-.18,.43-.27,1.04-.28,1.84,.24-.36,.52-.62,.86-.8,.34-.17,.7-.26,1.07-.26,.65,0,1.21,.24,1.67,.72,.46,.48,.69,1.1,.69,1.86,0,.5-.11,.96-.32,1.39s-.51,.76-.89,.99c-.38,.23-.8,.34-1.28,.34-.82,0-1.48-.3-2-.9s-.77-1.59-.77-2.97c0-1.54,.28-2.66,.85-3.36,.5-.61,1.17-.91,2.01-.91,.63,0,1.14,.18,1.54,.53s.64,.84,.72,1.46Zm-4,3.44c0,.34,.07,.66,.21,.97,.14,.31,.34,.54,.6,.7,.26,.16,.53,.24,.81,.24,.41,0,.77-.17,1.07-.5,.3-.33,.45-.79,.45-1.36s-.15-.99-.44-1.3c-.29-.32-.66-.48-1.11-.48s-.82,.16-1.12,.48c-.31,.32-.46,.73-.46,1.25Z"/><path class="h" d="M61.17,43.57c0-.94,.1-1.7,.29-2.27,.19-.57,.48-1.02,.86-1.33s.86-.47,1.44-.47c.43,0,.8,.09,1.12,.26,.32,.17,.59,.42,.8,.75,.21,.32,.38,.72,.49,1.19,.12,.46,.18,1.09,.18,1.88,0,.94-.1,1.69-.29,2.26-.19,.57-.48,1.02-.86,1.33-.38,.31-.87,.47-1.45,.47-.77,0-1.37-.28-1.81-.83-.53-.66-.79-1.74-.79-3.24Zm1.01,0c0,1.31,.15,2.18,.46,2.61,.31,.43,.68,.65,1.13,.65s.83-.22,1.13-.65c.31-.43,.46-1.3,.46-2.61s-.15-2.18-.46-2.61c-.31-.43-.69-.65-1.14-.65s-.81,.19-1.08,.57c-.34,.49-.51,1.38-.51,2.69Z"/></g><g class="f"><path class="d" d="M76.78,113.49v-5.58h.74v2.77l2.77-2.77h1l-2.34,2.26,2.44,3.32h-.97l-1.99-2.82-.91,.89v1.93h-.74Z"/><path class="d" d="M82.01,113.49v-5.58h.76l2.93,4.38v-4.38h.71v5.58h-.76l-2.93-4.38v4.38h-.71Z"/><path class="d" d="M87.42,110.77c0-.93,.25-1.65,.75-2.17,.5-.52,1.14-.79,1.92-.79,.52,0,.98,.12,1.39,.37,.41,.25,.73,.59,.95,1.03,.22,.44,.33,.94,.33,1.5s-.11,1.07-.34,1.52c-.23,.45-.55,.79-.97,1.01-.42,.23-.87,.34-1.35,.34-.52,0-.99-.13-1.41-.38-.41-.25-.73-.6-.94-1.04s-.32-.9-.32-1.39Zm.76,.01c0,.67,.18,1.2,.54,1.59,.36,.39,.82,.58,1.36,.58s1.01-.2,1.37-.59c.36-.39,.54-.94,.54-1.66,0-.45-.08-.85-.23-1.19s-.38-.6-.67-.79-.63-.28-1-.28c-.52,0-.97,.18-1.35,.54-.38,.36-.57,.96-.57,1.8Z"/><path class="d" d="M95.12,113.49v-4.92h-1.84v-.66h4.42v.66h-1.85v4.92h-.74Z"/><path class="d" d="M98.21,111.69l.7-.06c.03,.28,.11,.51,.23,.69,.12,.18,.31,.32,.56,.43s.54,.17,.86,.17c.28,0,.53-.04,.75-.12,.21-.08,.38-.2,.48-.34,.11-.15,.16-.3,.16-.48s-.05-.33-.15-.46c-.1-.13-.27-.24-.5-.33-.15-.06-.48-.15-.99-.27s-.87-.24-1.08-.35c-.27-.14-.46-.31-.6-.52-.13-.21-.2-.44-.2-.7,0-.28,.08-.54,.24-.79,.16-.25,.39-.43,.7-.56s.65-.19,1.02-.19c.41,0,.78,.07,1.09,.2,.32,.13,.56,.33,.73,.59s.26,.55,.27,.88l-.71,.05c-.04-.35-.17-.62-.39-.8-.22-.18-.54-.27-.97-.27s-.77,.08-.98,.25c-.2,.16-.31,.36-.31,.59,0,.2,.07,.37,.22,.49,.14,.13,.51,.26,1.11,.4,.6,.14,1.01,.25,1.24,.36,.32,.15,.56,.34,.72,.57,.16,.23,.23,.49,.23,.79s-.08,.58-.25,.84-.41,.47-.73,.61c-.32,.15-.68,.22-1.08,.22-.5,0-.93-.07-1.27-.22-.34-.15-.61-.37-.8-.66-.19-.29-.3-.63-.31-1Z"/></g><g class="f"><path class="h" d="M76.78,113.49v-5.58h.74v2.77l2.77-2.77h1l-2.34,2.26,2.44,3.32h-.97l-1.99-2.82-.91,.89v1.93h-.74Z"/><path class="h" d="M82.01,113.49v-5.58h.76l2.93,4.38v-4.38h.71v5.58h-.76l-2.93-4.38v4.38h-.71Z"/><path class="h" d="M87.42,110.77c0-.93,.25-1.65,.75-2.17,.5-.52,1.14-.79,1.92-.79,.52,0,.98,.12,1.39,.37,.41,.25,.73,.59,.95,1.03,.22,.44,.33,.94,.33,1.5s-.11,1.07-.34,1.52c-.23,.45-.55,.79-.97,1.01-.42,.23-.87,.34-1.35,.34-.52,0-.99-.13-1.41-.38-.41-.25-.73-.6-.94-1.04s-.32-.9-.32-1.39Zm.76,.01c0,.67,.18,1.2,.54,1.59,.36,.39,.82,.58,1.36,.58s1.01-.2,1.37-.59c.36-.39,.54-.94,.54-1.66,0-.45-.08-.85-.23-1.19s-.38-.6-.67-.79-.63-.28-1-.28c-.52,0-.97,.18-1.35,.54-.38,.36-.57,.96-.57,1.8Z"/><path class="h" d="M95.12,113.49v-4.92h-1.84v-.66h4.42v.66h-1.85v4.92h-.74Z"/><path class="h" d="M98.21,111.69l.7-.06c.03,.28,.11,.51,.23,.69,.12,.18,.31,.32,.56,.43s.54,.17,.86,.17c.28,0,.53-.04,.75-.12,.21-.08,.38-.2,.48-.34,.11-.15,.16-.3,.16-.48s-.05-.33-.15-.46c-.1-.13-.27-.24-.5-.33-.15-.06-.48-.15-.99-.27s-.87-.24-1.08-.35c-.27-.14-.46-.31-.6-.52-.13-.21-.2-.44-.2-.7,0-.28,.08-.54,.24-.79,.16-.25,.39-.43,.7-.56s.65-.19,1.02-.19c.41,0,.78,.07,1.09,.2,.32,.13,.56,.33,.73,.59s.26,.55,.27,.88l-.71,.05c-.04-.35-.17-.62-.39-.8-.22-.18-.54-.27-.97-.27s-.77,.08-.98,.25c-.2,.16-.31,.36-.31,.59,0,.2,.07,.37,.22,.49,.14,.13,.51,.26,1.11,.4,.6,.14,1.01,.25,1.24,.36,.32,.15,.56,.34,.72,.57,.16,.23,.23,.49,.23,.79s-.08,.58-.25,.84-.41,.47-.73,.61c-.32,.15-.68,.22-1.08,.22-.5,0-.93-.07-1.27-.22-.34-.15-.61-.37-.8-.66-.19-.29-.3-.63-.31-1Z"/></g><g class="f"><path class="d" d="M68.37,70.62l2.14-5.58h.79l2.28,5.58h-.84l-.65-1.69h-2.33l-.61,1.69h-.78Zm1.61-2.29h1.89l-.58-1.54c-.18-.47-.31-.85-.4-1.16-.07,.36-.17,.71-.3,1.07l-.61,1.64Z"/><path class="d" d="M74.31,70.62v-5.58h.74v5.58h-.74Z"/><path class="d" d="M76.36,70.62v-5.58h2.47c.5,0,.88,.05,1.13,.15,.26,.1,.47,.28,.62,.53,.16,.25,.23,.53,.23,.84,0,.4-.13,.73-.38,1-.26,.27-.65,.44-1.19,.52,.2,.09,.34,.19,.45,.28,.22,.2,.42,.45,.61,.74l.97,1.52h-.93l-.74-1.16c-.22-.33-.39-.59-.53-.77-.14-.18-.26-.3-.38-.37-.11-.07-.22-.12-.34-.15-.08-.02-.22-.03-.41-.03h-.86v2.48h-.74Zm.74-3.12h1.59c.34,0,.6-.04,.79-.1,.19-.07,.33-.18,.43-.33,.1-.15,.15-.32,.15-.5,0-.26-.1-.48-.29-.65-.19-.17-.49-.25-.91-.25h-1.77v1.85Z"/><path class="d" d="M83.89,68.83l.7-.06c.03,.28,.11,.51,.23,.69,.12,.18,.31,.32,.56,.43s.54,.17,.86,.17c.28,0,.53-.04,.75-.12,.21-.08,.38-.2,.48-.34,.11-.15,.16-.3,.16-.48s-.05-.33-.15-.46c-.1-.13-.27-.24-.5-.33-.15-.06-.48-.15-.99-.27s-.87-.24-1.08-.35c-.27-.14-.46-.31-.6-.52-.13-.21-.2-.44-.2-.7,0-.28,.08-.54,.24-.79,.16-.25,.39-.43,.7-.56s.65-.19,1.02-.19c.41,0,.78,.07,1.09,.2,.32,.13,.56,.33,.73,.59s.26,.55,.27,.88l-.71,.05c-.04-.35-.17-.62-.39-.8-.22-.18-.54-.27-.97-.27s-.77,.08-.98,.25c-.2,.16-.31,.36-.31,.59,0,.2,.07,.37,.22,.49,.14,.13,.51,.26,1.11,.4,.6,.14,1.01,.25,1.24,.36,.32,.15,.56,.34,.72,.57,.16,.23,.23,.49,.23,.79s-.08,.58-.25,.84-.41,.47-.73,.61c-.32,.15-.68,.22-1.08,.22-.5,0-.93-.07-1.27-.22-.34-.15-.61-.37-.8-.66-.19-.29-.3-.63-.31-1Z"/><path class="d" d="M89.34,70.62v-5.58h2.1c.37,0,.65,.02,.85,.05,.27,.05,.5,.13,.69,.26,.18,.13,.33,.31,.45,.54,.11,.23,.17,.49,.17,.76,0,.47-.15,.88-.45,1.2s-.85,.49-1.64,.49h-1.43v2.27h-.74Zm.74-2.93h1.44c.48,0,.82-.09,1.02-.27s.3-.43,.3-.75c0-.23-.06-.43-.18-.6-.12-.17-.27-.28-.47-.33-.12-.03-.35-.05-.69-.05h-1.43v1.99Z"/><path class="d" d="M94.55,70.62v-5.58h4.03v.66h-3.3v1.71h3.09v.65h-3.09v1.9h3.42v.66h-4.16Z"/><path class="d" d="M99.75,70.62v-5.58h4.03v.66h-3.3v1.71h3.09v.65h-3.09v1.9h3.42v.66h-4.16Z"/><path class="d" d="M104.93,70.62v-5.58h1.92c.43,0,.77,.03,.99,.08,.32,.07,.59,.21,.82,.4,.29,.25,.51,.57,.66,.95,.15,.39,.22,.83,.22,1.33,0,.42-.05,.8-.15,1.13-.1,.33-.23,.6-.38,.81-.16,.21-.32,.38-.51,.51-.18,.12-.41,.22-.67,.28-.26,.06-.56,.09-.9,.09h-2.01Zm.74-.66h1.19c.37,0,.66-.03,.87-.1,.21-.07,.38-.17,.5-.29,.17-.18,.31-.41,.41-.71,.1-.3,.15-.65,.15-1.08,0-.58-.1-1.03-.29-1.35-.19-.31-.42-.52-.7-.63-.2-.08-.52-.11-.96-.11h-1.17v4.26Z"/></g><g class="f"><path class="h" d="M68.37,70.62l2.14-5.58h.79l2.28,5.58h-.84l-.65-1.69h-2.33l-.61,1.69h-.78Zm1.61-2.29h1.89l-.58-1.54c-.18-.47-.31-.85-.4-1.16-.07,.36-.17,.71-.3,1.07l-.61,1.64Z"/><path class="h" d="M74.31,70.62v-5.58h.74v5.58h-.74Z"/><path class="h" d="M76.36,70.62v-5.58h2.47c.5,0,.88,.05,1.13,.15,.26,.1,.47,.28,.62,.53,.16,.25,.23,.53,.23,.84,0,.4-.13,.73-.38,1-.26,.27-.65,.44-1.19,.52,.2,.09,.34,.19,.45,.28,.22,.2,.42,.45,.61,.74l.97,1.52h-.93l-.74-1.16c-.22-.33-.39-.59-.53-.77-.14-.18-.26-.3-.38-.37-.11-.07-.22-.12-.34-.15-.08-.02-.22-.03-.41-.03h-.86v2.48h-.74Zm.74-3.12h1.59c.34,0,.6-.04,.79-.1,.19-.07,.33-.18,.43-.33,.1-.15,.15-.32,.15-.5,0-.26-.1-.48-.29-.65-.19-.17-.49-.25-.91-.25h-1.77v1.85Z"/><path class="h" d="M83.89,68.83l.7-.06c.03,.28,.11,.51,.23,.69,.12,.18,.31,.32,.56,.43s.54,.17,.86,.17c.28,0,.53-.04,.75-.12,.21-.08,.38-.2,.48-.34,.11-.15,.16-.3,.16-.48s-.05-.33-.15-.46c-.1-.13-.27-.24-.5-.33-.15-.06-.48-.15-.99-.27s-.87-.24-1.08-.35c-.27-.14-.46-.31-.6-.52-.13-.21-.2-.44-.2-.7,0-.28,.08-.54,.24-.79,.16-.25,.39-.43,.7-.56s.65-.19,1.02-.19c.41,0,.78,.07,1.09,.2,.32,.13,.56,.33,.73,.59s.26,.55,.27,.88l-.71,.05c-.04-.35-.17-.62-.39-.8-.22-.18-.54-.27-.97-.27s-.77,.08-.98,.25c-.2,.16-.31,.36-.31,.59,0,.2,.07,.37,.22,.49,.14,.13,.51,.26,1.11,.4,.6,.14,1.01,.25,1.24,.36,.32,.15,.56,.34,.72,.57,.16,.23,.23,.49,.23,.79s-.08,.58-.25,.84-.41,.47-.73,.61c-.32,.15-.68,.22-1.08,.22-.5,0-.93-.07-1.27-.22-.34-.15-.61-.37-.8-.66-.19-.29-.3-.63-.31-1Z"/><path class="h" d="M89.34,70.62v-5.58h2.1c.37,0,.65,.02,.85,.05,.27,.05,.5,.13,.69,.26,.18,.13,.33,.31,.45,.54,.11,.23,.17,.49,.17,.76,0,.47-.15,.88-.45,1.2s-.85,.49-1.64,.49h-1.43v2.27h-.74Zm.74-2.93h1.44c.48,0,.82-.09,1.02-.27s.3-.43,.3-.75c0-.23-.06-.43-.18-.6-.12-.17-.27-.28-.47-.33-.12-.03-.35-.05-.69-.05h-1.43v1.99Z"/><path class="h" d="M94.55,70.62v-5.58h4.03v.66h-3.3v1.71h3.09v.65h-3.09v1.9h3.42v.66h-4.16Z"/><path class="h" d="M99.75,70.62v-5.58h4.03v.66h-3.3v1.71h3.09v.65h-3.09v1.9h3.42v.66h-4.16Z"/><path class="h" d="M104.93,70.62v-5.58h1.92c.43,0,.77,.03,.99,.08,.32,.07,.59,.21,.82,.4,.29,.25,.51,.57,.66,.95,.15,.39,.22,.83,.22,1.33,0,.42-.05,.8-.15,1.13-.1,.33-.23,.6-.38,.81-.16,.21-.32,.38-.51,.51-.18,.12-.41,.22-.67,.28-.26,.06-.56,.09-.9,.09h-2.01Zm.74-.66h1.19c.37,0,.66-.03,.87-.1,.21-.07,.38-.17,.5-.29,.17-.18,.31-.41,.41-.71,.1-.3,.15-.65,.15-1.08,0-.58-.1-1.03-.29-1.35-.19-.31-.42-.52-.7-.63-.2-.08-.52-.11-.96-.11h-1.17v4.26Z"/></g><g class="f"><path class="d" d="M87.41,30.21c0-.94,.1-1.7,.29-2.27,.19-.57,.48-1.02,.86-1.33s.86-.47,1.44-.47c.43,0,.8,.09,1.12,.26,.32,.17,.59,.42,.8,.75,.21,.32,.38,.72,.49,1.19,.12,.46,.18,1.09,.18,1.88,0,.94-.1,1.69-.29,2.26-.19,.57-.48,1.02-.86,1.33-.38,.31-.87,.47-1.45,.47-.77,0-1.37-.28-1.81-.83-.53-.66-.79-1.74-.79-3.24Zm1.01,0c0,1.31,.15,2.18,.46,2.61,.31,.43,.68,.65,1.13,.65s.83-.22,1.13-.65c.31-.43,.46-1.3,.46-2.61s-.15-2.18-.46-2.61c-.31-.43-.69-.65-1.14-.65s-.81,.19-1.08,.57c-.34,.49-.51,1.38-.51,2.69Z"/></g><g class="f"><path class="h" d="M87.41,30.21c0-.94,.1-1.7,.29-2.27,.19-.57,.48-1.02,.86-1.33s.86-.47,1.44-.47c.43,0,.8,.09,1.12,.26,.32,.17,.59,.42,.8,.75,.21,.32,.38,.72,.49,1.19,.12,.46,.18,1.09,.18,1.88,0,.94-.1,1.69-.29,2.26-.19,.57-.48,1.02-.86,1.33-.38,.31-.87,.47-1.45,.47-.77,0-1.37-.28-1.81-.83-.53-.66-.79-1.74-.79-3.24Zm1.01,0c0,1.31,.15,2.18,.46,2.61,.31,.43,.68,.65,1.13,.65s.83-.22,1.13-.65c.31-.43,.46-1.3,.46-2.61s-.15-2.18-.46-2.61c-.31-.43-.69-.65-1.14-.65s-.81,.19-1.08,.57c-.34,.49-.51,1.38-.51,2.69Z"/></g></g><g><polygon class="e" points="126.18 160.73 131.19 164.07 130.16 158.15 91.15 98.34 87.18 100.93 126.18 160.73"/><path class="i" d="M67.4,70.61c-.69,3.26,3.22,4.94,4.72,7.24l1.14,1.74,4.33,6.63c-1.82,2.38-2.05,5.74-.32,8.4s4.9,3.8,7.81,3.09l2.1,3.22,3.97-2.59-2.08-3.18c1.88-2.39,2.14-5.8,.39-8.48s-4.98-3.83-7.92-3.07l-4.35-6.67-1.12-1.71c-1.4-2.15-1.46-6.52-4.7-7.2-1.91-.4-3.55,.57-3.97,2.59Z"/></g></g></g></g></svg>