<?xml version="1.0" encoding="UTF-8"?><svg xmlns="http://www.w3.org/2000/svg" viewBox="0 0 180 180"><defs><style>.d,.e{fill:#fff;}.f{fill:#ff2a00;}.g{fill:#232323;}.h{stroke-width:2px;}.h,.i{fill:none;}.h,.i,.e{stroke-miterlimit:10;}.h,.e{stroke:#fff;}.i{stroke:#ff2a00;stroke-width:3px;}</style></defs><g id="a"/><g id="b"><g id="c"><g><g><ellipse class="d" cx="90.46" cy="90" rx="88.93" ry="89.5"/><path d="M90.46,1c48.76,0,88.43,39.93,88.43,89s-39.67,89-88.43,89S2.03,139.07,2.03,90,41.7,1,90.46,1m0-1C41.07,0,1.03,40.29,1.03,90s40.04,90,89.43,90,89.43-40.29,89.43-90S139.85,0,90.46,0h0Z"/></g><g><ellipse class="g" cx="90" cy="90" rx="90" ry="89.54"/><line class="h" x1="90.28" y1="173.7" x2="90.28" y2="160.35"/><line class="h" x1="97.31" y1="173.16" x2="96.53" y2="164.3"/><line class="h" x1="111.72" y1="170.63" x2="109.4" y2="162.05"/><line class="h" x1="125.46" y1="165.65" x2="121.69" y2="157.6"/><line class="h" x1="138.13" y1="158.38" x2="133" y2="151.1"/><line class="h" x1="149.33" y1="149.03" x2="143.01" y2="142.74"/><line class="h" x1="158.73" y1="137.88" x2="151.42" y2="132.78"/><line class="h" x1="166.05" y1="125.28" x2="157.95" y2="121.52"/><line class="h" x1="171.05" y1="111.61" x2="162.42" y2="109.31"/><line class="h" x1="173.59" y1="97.28" x2="164.69" y2="96.5"/><line class="h" x1="173.59" y1="82.72" x2="164.69" y2="83.5"/><line class="h" x1="171.05" y1="68.4" x2="162.42" y2="70.7"/><line class="h" x1="166.05" y1="54.72" x2="157.95" y2="58.48"/><line class="h" x1="158.73" y1="42.12" x2="151.42" y2="47.22"/><line class="h" x1="149.33" y1="30.97" x2="143.02" y2="37.26"/><line class="h" x1="138.13" y1="21.62" x2="133.01" y2="28.9"/><line class="h" x1="125.46" y1="14.35" x2="121.69" y2="22.4"/><line class="h" x1="111.72" y1="9.37" x2="109.41" y2="17.95"/><line class="h" x1="97.31" y1="6.84" x2="96.54" y2="15.7"/><line class="h" x1="82.69" y1="6.84" x2="83.47" y2="15.7"/><line class="h" x1="68.29" y1="9.37" x2="70.6" y2="17.95"/><line class="h" x1="54.54" y1="14.34" x2="58.32" y2="22.4"/><line class="h" x1="41.87" y1="21.62" x2="47" y2="28.9"/><line class="h" x1="30.67" y1="30.97" x2="36.99" y2="37.26"/><line class="h" x1="21.27" y1="42.12" x2="28.59" y2="47.22"/><line class="h" x1="13.96" y1="54.72" x2="22.05" y2="58.48"/><line class="h" x1="8.95" y1="68.39" x2="17.58" y2="70.69"/><line class="h" x1="6.41" y1="82.72" x2="15.31" y2="83.5"/><line class="h" x1="6.41" y1="97.27" x2="15.31" y2="96.5"/><line class="h" x1="8.95" y1="111.6" x2="17.58" y2="109.3"/><line class="h" x1="13.95" y1="125.28" x2="22.05" y2="121.52"/><line class="h" x1="21.27" y1="137.88" x2="28.58" y2="132.78"/><line class="h" x1="30.67" y1="149.02" x2="36.98" y2="142.74"/><line class="h" x1="41.87" y1="158.38" x2="47" y2="151.1"/><line class="h" x1="54.54" y1="165.65" x2="58.31" y2="157.6"/><line class="h" x1="68.28" y1="170.63" x2="70.59" y2="162.05"/><line class="h" x1="82.69" y1="173.16" x2="83.46" y2="164.3"/><line class="h" x1="104.57" y1="172.21" x2="102.3" y2="159.37"/><line class="h" x1="118.7" y1="168.44" x2="114.22" y2="156.19"/><line class="h" x1="131.95" y1="162.29" x2="125.4" y2="151.01"/><line class="h" x1="143.93" y1="153.94" x2="135.51" y2="143.96"/><line class="h" x1="154.28" y1="143.66" x2="144.24" y2="135.28"/><line class="h" x1="162.67" y1="131.74" x2="151.32" y2="125.22"/><line class="h" x1="168.85" y1="118.55" x2="156.54" y2="114.09"/><line class="h" x1="172.63" y1="104.5" x2="159.73" y2="102.23"/><line class="h" x1="174.13" y1="90.28" x2="160.71" y2="90.28"/><line class="h" x1="172.63" y1="75.51" x2="159.73" y2="77.77"/><line class="h" x1="168.85" y1="61.45" x2="156.54" y2="65.91"/><line class="h" x1="162.67" y1="48.26" x2="151.32" y2="54.78"/><line class="h" x1="154.28" y1="36.34" x2="144.24" y2="44.72"/><line class="h" x1="143.93" y1="26.06" x2="135.52" y2="36.04"/><line class="h" x1="131.95" y1="17.71" x2="125.4" y2="28.99"/><line class="h" x1="118.7" y1="11.56" x2="114.22" y2="23.8"/><line class="h" x1="104.57" y1="7.79" x2="102.3" y2="20.63"/><line class="h" x1="90.28" y1="6.3" x2="90.28" y2="19.65"/><line class="h" x1="75.43" y1="7.79" x2="77.71" y2="20.63"/><line class="h" x1="61.3" y1="11.56" x2="65.78" y2="23.8"/><line class="h" x1="48.05" y1="17.71" x2="54.6" y2="28.99"/><line class="h" x1="36.07" y1="26.06" x2="44.49" y2="36.04"/><line class="h" x1="25.72" y1="36.34" x2="35.76" y2="44.72"/><line class="h" x1="17.34" y1="48.26" x2="28.68" y2="54.78"/><line class="h" x1="11.15" y1="61.45" x2="23.46" y2="65.91"/><line class="h" x1="7.37" y1="75.5" x2="20.27" y2="77.77"/><line class="h" x1="5.87" y1="89.72" x2="19.29" y2="89.72"/><line class="h" x1="7.37" y1="104.49" x2="20.27" y2="102.23"/><line class="h" x1="11.15" y1="118.55" x2="23.46" y2="114.09"/><line class="h" x1="17.33" y1="131.74" x2="28.68" y2="125.22"/><line class="h" x1="25.72" y1="143.66" x2="35.76" y2="135.28"/><line class="h" x1="36.07" y1="153.94" x2="44.49" y2="143.96"/><line class="h" x1="48.05" y1="162.29" x2="54.6" y2="151"/><line class="h" x1="61.3" y1="168.44" x2="65.78" y2="156.19"/><line class="h" x1="75.43" y1="172.21" x2="77.7" y2="159.37"/><path class="e" d="M85.53,35.5v-12.23h.84l7.55,9.38v-9.38h1.12v12.23h-.14l-8.25-9.44v9.44h-1.12Z"/><g><path class="e" d="M53.49,39.46l-.89,.51c-.25-.81-.26-1.53-.03-2.18,.23-.65,.66-1.15,1.29-1.51,.45-.26,.94-.4,1.45-.42,.51-.02,.98,.08,1.39,.31s.74,.53,.96,.91c.43,.74,.4,1.55-.09,2.41,.52-.07,1-.02,1.46,.15,.64,.24,1.13,.65,1.46,1.21,.28,.49,.43,1.03,.42,1.63,0,.59-.16,1.14-.47,1.64-.31,.5-.74,.91-1.3,1.23-.75,.43-1.5,.57-2.25,.43-.75-.14-1.44-.58-2.08-1.33l.85-.49c.48,.47,.93,.76,1.35,.85,.54,.11,1.09,0,1.65-.31,.63-.36,1.03-.84,1.19-1.44,.16-.6,.1-1.15-.19-1.65-.2-.34-.47-.6-.84-.78s-.75-.26-1.15-.22c-.41,.04-.96,.23-1.65,.58l-.46-.79c.4-.23,.72-.51,.97-.83,.25-.33,.38-.64,.4-.94,.02-.3-.04-.58-.19-.83-.22-.38-.56-.61-1.02-.72-.46-.1-.92-.02-1.38,.25-.37,.22-.64,.51-.79,.87-.15,.37-.17,.85-.07,1.46Z"/><path class="e" d="M60.2,35.61l-.89,.51c-.25-.81-.26-1.53-.03-2.18,.23-.65,.66-1.15,1.28-1.51,.45-.26,.94-.4,1.45-.42,.51-.02,.98,.08,1.39,.31,.42,.23,.74,.53,.96,.91,.43,.75,.4,1.55-.09,2.41,.52-.07,1-.02,1.46,.15,.64,.24,1.13,.65,1.46,1.21,.28,.49,.43,1.03,.42,1.63,0,.59-.16,1.14-.47,1.64-.31,.5-.74,.91-1.3,1.23-.75,.43-1.5,.57-2.25,.43-.75-.14-1.44-.58-2.08-1.33l.85-.49c.48,.47,.92,.76,1.35,.85,.54,.11,1.09,0,1.65-.31,.63-.36,1.03-.84,1.19-1.44,.16-.6,.1-1.15-.2-1.65-.2-.34-.47-.6-.84-.78s-.75-.26-1.15-.22c-.41,.04-.96,.23-1.65,.58l-.46-.79c.4-.23,.72-.51,.97-.83,.25-.33,.38-.64,.4-.94,.02-.3-.04-.58-.19-.83-.22-.38-.56-.61-1.02-.72-.46-.1-.92-.02-1.38,.25-.37,.22-.64,.51-.79,.87-.15,.37-.17,.85-.07,1.46Z"/></g><g><path class="e" d="M33.03,63.78l-.51,.88c-.62-.57-1-1.2-1.12-1.87-.12-.68,0-1.32,.36-1.94,.26-.45,.61-.81,1.04-1.08,.43-.27,.89-.41,1.36-.42,.48-.01,.9,.09,1.29,.31,.75,.43,1.13,1.14,1.13,2.13,.41-.32,.86-.52,1.34-.6,.68-.11,1.3,0,1.88,.32,.49,.28,.89,.68,1.18,1.2s.44,1.07,.42,1.65c-.02,.59-.18,1.16-.5,1.71-.43,.74-1.01,1.24-1.73,1.49-.72,.25-1.54,.21-2.47-.12l.49-.85c.65,.17,1.18,.2,1.6,.06,.53-.17,.95-.54,1.27-1.09,.36-.63,.47-1.24,.31-1.84-.16-.6-.49-1.04-1-1.33-.34-.19-.71-.28-1.12-.26s-.78,.15-1.11,.38c-.33,.23-.71,.68-1.14,1.32l-.8-.46c.23-.4,.37-.8,.42-1.2,.05-.41,0-.74-.12-1.02-.13-.27-.32-.48-.58-.63-.38-.22-.79-.25-1.24-.11-.45,.14-.81,.44-1.07,.9-.22,.37-.3,.75-.24,1.15,.05,.39,.28,.83,.67,1.3Z"/><path class="e" d="M38.54,59.66c-1.15-.66-1.96-1.29-2.45-1.89-.48-.6-.76-1.22-.82-1.86-.06-.63,.06-1.23,.39-1.78,.32-.56,.78-.97,1.37-1.24,.59-.27,1.29-.35,2.09-.24,.8,.11,1.75,.48,2.85,1.11,1.09,.63,1.88,1.26,2.38,1.89,.5,.63,.77,1.27,.84,1.92s-.07,1.25-.39,1.81c-.32,.55-.77,.96-1.35,1.22-.58,.26-1.25,.33-2.03,.22s-1.73-.5-2.87-1.15Zm.49-.81c.98,.56,1.77,.9,2.38,1.02,.6,.11,1.13,.08,1.59-.12,.46-.19,.8-.48,1.02-.86,.22-.38,.3-.82,.24-1.3-.06-.48-.3-.95-.7-1.42-.49-.57-1.18-1.11-2.05-1.61-.88-.5-1.65-.82-2.32-.95-.67-.13-1.23-.1-1.69,.09-.46,.19-.79,.47-1.01,.85-.22,.38-.3,.82-.24,1.3,.06,.49,.29,.96,.69,1.43,.4,.47,1.09,.98,2.08,1.55Z"/></g><g><path class="e" d="M39.46,125.84l.48,.83c-.87,.47-1.74,.59-2.61,.36-.87-.23-1.53-.75-2-1.55-.46-.8-.58-1.59-.35-2.38,.23-.79,.7-1.38,1.4-1.79,.49-.28,1.02-.43,1.59-.44,.57-.01,1.42,.11,2.55,.36l3.58,.82-2.32-3.99,.84-.48,3.41,5.87-5.51-1.24c-1.11-.26-1.9-.38-2.36-.39-.47,0-.89,.11-1.28,.33-.49,.28-.8,.7-.95,1.27s-.06,1.11,.24,1.64c.32,.55,.77,.91,1.36,1.06,.58,.15,1.22,.06,1.92-.27Z"/><path class="e" d="M30.48,117.12l-.1-.18,6.06-3.48-.61-1.05,.83-.47,.61,1.05,2.02-1.16,.5,.86-2.02,1.16,2.4,4.14-9.69-.86Zm6.46-2.8l-3.65,2.1,5.14,.46-1.49-2.56Z"/></g><g><path class="e" d="M63.99,146l.83,.48c-.52,.84-1.21,1.37-2.08,1.61-.87,.23-1.7,.12-2.51-.35-.8-.46-1.3-1.09-1.49-1.89-.2-.8-.09-1.54,.31-2.24,.28-.49,.67-.88,1.15-1.18s1.28-.61,2.39-.96l3.51-1.08-4.01-2.3,.48-.84,5.9,3.39-5.39,1.66c-1.09,.33-1.84,.61-2.24,.84-.4,.23-.72,.54-.94,.92-.28,.49-.34,1.01-.18,1.57,.16,.56,.5,.99,1.03,1.3,.56,.32,1.12,.4,1.71,.24,.58-.16,1.09-.55,1.53-1.19Z"/><path class="e" d="M54.87,144.36l-1.71-.98,5.02-8.65,.86,.5-4.53,7.8,1.37,.78-1.01,.55Z"/></g><g><path class="e" d="M126.35,143.75l-1.71,.98-5.02-8.65,.86-.5,4.53,7.8,1.37-.78-.03,1.15Z"/><path class="e" d="M117.02,149.1l-.48-.82,3.09-1.77-.93-2.61c-.31,.33-.62,.58-.93,.75-.79,.45-1.6,.57-2.42,.33-.82-.23-1.47-.76-1.95-1.58-.33-.57-.5-1.17-.51-1.79-.01-.63,.14-1.19,.44-1.71,.3-.51,.75-.94,1.34-1.28,.71-.41,1.42-.53,2.16-.38,.73,.15,1.35,.54,1.84,1.17l-.89,.51c-.26-.29-.53-.5-.81-.62-.28-.12-.59-.16-.93-.14-.34,.03-.66,.12-.95,.29-.57,.33-.94,.83-1.1,1.49-.16,.67-.05,1.32,.32,1.97,.34,.58,.8,.95,1.38,1.1,.58,.15,1.18,.05,1.8-.31,.51-.29,1.04-.81,1.59-1.53l1.69,4.76-3.76,2.16Z"/></g><g><path class="e" d="M148.52,117.99l-.99,1.7-8.69-4.99,.5-.86,7.84,4.5,.79-1.36,.55,1.01Z"/><path class="e" d="M143.04,121.19l.48-.83c.84,.52,1.38,1.21,1.61,2.07,.23,.86,.12,1.7-.35,2.5-.46,.8-1.09,1.29-1.9,1.49-.8,.2-1.55,.09-2.25-.31-.49-.28-.89-.67-1.18-1.15-.3-.48-.62-1.27-.96-2.37l-1.08-3.49-2.32,3.99-.84-.48,3.41-5.87,1.67,5.37c.33,1.08,.61,1.83,.85,2.23,.23,.4,.54,.71,.93,.94,.49,.28,1.01,.34,1.58,.18,.56-.16,1-.5,1.3-1.03,.32-.55,.4-1.12,.24-1.7-.16-.58-.56-1.09-1.2-1.52Z"/></g><path class="e" d="M146.99,58.24l-.05,.98-4.91-.3c.29,.25,.51,.52,.67,.79,.4,.69,.49,1.41,.27,2.18-.22,.77-.7,1.36-1.42,1.78-.5,.29-1.02,.43-1.56,.43s-1.05-.14-1.54-.43-.87-.68-1.15-1.17c-.28-.47-.42-.98-.42-1.52,0-.54,.13-1.04,.42-1.51s.66-.84,1.14-1.12c.35-.2,.77-.35,1.24-.43,.48-.08,1.1-.1,1.86-.04l5.46,.37Zm-5.18,1.71c-.29-.5-.72-.83-1.28-.98-.56-.15-1.1-.08-1.61,.21-.5,.29-.83,.71-.98,1.27-.15,.56-.08,1.09,.21,1.59s.72,.83,1.28,.98c.56,.15,1.1,.08,1.6-.21,.51-.29,.84-.72,.99-1.28s.08-1.09-.21-1.59Z"/><path class="e" d="M119.15,34.81l-.89-.51c.58-.62,1.2-.99,1.88-1.11,.68-.12,1.33,0,1.95,.35,.45,.26,.82,.61,1.09,1.04,.27,.43,.41,.88,.43,1.35,.01,.47-.09,.9-.31,1.28-.43,.75-1.15,1.12-2.14,1.13,.32,.41,.52,.85,.6,1.33,.11,.68,0,1.3-.33,1.87-.28,.49-.69,.88-1.2,1.18s-1.07,.44-1.66,.42c-.59-.02-1.16-.18-1.72-.5-.75-.43-1.25-1-1.5-1.72-.25-.72-.21-1.53,.12-2.45l.85,.49c-.18,.65-.2,1.18-.06,1.59,.17,.52,.54,.94,1.09,1.26,.63,.36,1.25,.46,1.85,.31,.6-.16,1.05-.49,1.34-.99,.2-.34,.28-.71,.26-1.11s-.15-.77-.38-1.11c-.23-.33-.68-.71-1.33-1.13l.46-.79c.4,.23,.8,.37,1.21,.42,.41,.05,.75,0,1.02-.12,.27-.13,.48-.32,.63-.58,.22-.38,.26-.79,.11-1.24-.14-.45-.44-.8-.91-1.07-.37-.22-.76-.3-1.15-.24-.39,.05-.83,.28-1.31,.67Z"/><path class="e" d="M22.92,97.34v-1.26l8.86-2.5-8.86-3.51v-.25l8.86-3.47-8.86-2.54v-1.25l12.3,3.52v.23l-9.31,3.63,9.31,3.7v.23l-12.3,3.47Z"/><path class="e" d="M93.32,147.1l-1.02,.61c-.72-1.32-1.55-1.98-2.5-1.98-.4,0-.78,.09-1.14,.28s-.62,.44-.81,.75-.28,.65-.28,1c0,.4,.14,.8,.41,1.18,.38,.53,1.06,1.17,2.06,1.92,1,.75,1.63,1.3,1.87,1.64,.43,.57,.64,1.18,.64,1.83,0,.52-.13,1-.38,1.43s-.6,.77-1.06,1.01-.95,.37-1.49,.37c-.57,0-1.1-.14-1.59-.42s-1.02-.79-1.57-1.54l.98-.74c.45,.6,.84,.99,1.16,1.18s.67,.29,1.04,.29c.49,0,.88-.15,1.19-.44s.46-.65,.46-1.08c0-.26-.05-.51-.16-.76s-.31-.51-.6-.8c-.16-.15-.68-.55-1.56-1.2-1.04-.77-1.76-1.45-2.15-2.04s-.58-1.2-.58-1.8c0-.87,.33-1.62,1-2.26s1.47-.96,2.42-.96c.73,0,1.39,.19,1.99,.58s1.14,1.04,1.65,1.95Z"/><path class="e" d="M157.08,86.11v7.23h-1.12v-5.56h-3.91v5.56h-1.12v-5.56h-4.47v5.56h-1.68v-7.23h12.3Z"/></g><g><path class="i" d="M90.46,15.73s-4.36,7.24-6.99,15.42c-2.63,8.17-4.41,32-4.41,32l-33.55,24.48s-8.38,5.3-10.09,9.71c-.59,1.54-.92,3.64-1,4.89-.14,2.29,0,8.56,0,8.56,.08,1.32,.93,2.41,3.71,1.48s43.01-14.4,43.01-14.4l1.7,33.79s-10.35,8.07-13.54,11.06c-.76,.72-1.89,1.72-2.51,3.04-.65,1.36-.72,3.45-.74,4.52-.02,1.52-.08,5.07,.12,5.64,.31,.9,.66,1.19,1.94,1.19,1.62,0,8-3.57,8-3.57l11.6-5.76,2.68,7.63-2.68-7.63,2.68,7.63h.1l2.68-7.63,11.6,5.76s6.38,3.57,8,3.57c1.28,0,1.63-.3,1.94-1.19,.2-.57,.14-4.13,.12-5.64-.02-1.07-.09-3.15-.74-4.52-.62-1.31-1.75-2.32-2.51-3.04-3.19-2.99-13.54-11.06-13.54-11.06l1.7-33.79s40.23,13.47,43.01,14.4,3.64-.16,3.71-1.48c0,0,.14-6.27,0-8.56-.07-1.25-.4-3.35-1-4.89-1.71-4.42-10.09-9.71-10.09-9.71l-33.55-24.48s-1.78-23.82-4.41-32c-2.63-8.17-6.99-15.41-6.99-15.41V3.12"/><polygon class="f" points="90.48 172.45 86.87 180 94.29 180 90.48 172.45"/><polygon class="d" points="148.59 148.45 151.36 156.41 156.64 151.09 148.59 148.45"/><polygon class="d" points="32.03 148.78 24.73 151.35 29.61 156.26 32.03 148.78"/><polygon class="f" points="8.46 89.99 1.03 86.4 1.03 93.79 8.46 89.99"/><polygon class="d" points="32.07 31.24 29.47 23.76 24.51 28.75 32.07 31.24"/><polygon class="d" points="148.87 31.14 156.17 28.57 151.3 23.67 148.87 31.14"/><polygon class="f" points="172.39 89.93 179.89 93.57 179.89 86.1 172.39 89.93"/><polygon class="f" points="90.63 7.56 94.24 0 86.82 0 90.63 7.56"/></g></g></g></g></svg>