<?xml version="1.0" encoding="UTF-8"?><svg xmlns="http://www.w3.org/2000/svg" xmlns:xlink="http://www.w3.org/1999/xlink" viewBox="0 0 180 179.72"><defs><style>.i{fill:#fff;}.j{fill:#232323;}.k{fill:url(#f);}.l{stroke-width:2px;}.l,.m,.n,.o{fill:none;stroke-miterlimit:10;}.l,.n{stroke:#fff;}.m{stroke:#353535;stroke-width:1.3px;}.p{fill:url(#h);}.q{fill:url(#d);}.n{stroke-width:4px;}.o{stroke:#ff7f00;stroke-linecap:round;stroke-width:5px;}</style><linearGradient id="d" x1="-472.83" y1="744.06" x2="-472.83" y2="922.24" gradientTransform="translate(564 922.98) scale(1 -1)" gradientUnits="userSpaceOnUse"><stop offset=".5" stop-color="#503723"/><stop offset=".5" stop-color="#558ebb"/></linearGradient><linearGradient id="f" x1="-472.58" y1="785.19" x2="-472.58" y2="881.11" gradientTransform="translate(564 922.98) scale(1 -1)" gradientUnits="userSpaceOnUse"><stop offset="0" stop-color="#3d2618"/><stop offset=".5" stop-color="#503723"/><stop offset=".5" stop-color="#9ccbe5"/><stop offset="1" stop-color="#558ebb"/></linearGradient><linearGradient id="h" x1="-474.43" y1="743.32" x2="-474.43" y2="922.98" xlink:href="#d"/></defs><g id="a"/><g id="b"><g id="c"><g><g><ellipse class="i" cx="91.04" cy="89.83" rx="87.21" ry="87.46"/><path d="M91.04,2.87c47.81,0,86.71,39.01,86.71,86.97s-38.9,86.97-86.71,86.97S4.33,137.78,4.33,89.83,43.23,2.87,91.04,2.87m0-1C42.6,1.87,3.33,41.25,3.33,89.83s39.27,87.97,87.71,87.97,87.71-39.38,87.71-87.97S139.48,1.87,91.04,1.87h0Z"/></g><ellipse id="e" class="q" cx="91.17" cy="89.83" rx="88.83" ry="89.09"/><g><path class="k" d="M154.97,89.83c0,26.46-21.37,47.92-47.74,47.96h-30.95c-25.86,0-47.5-20.37-48.37-46.3-.92-27.24,20.83-49.62,47.79-49.62h31.51c26.38,.03,47.76,21.49,47.76,47.96Z"/><line class="l" x1="28.14" y1="89.83" x2="155.24" y2="89.83"/><line class="l" x1="83.51" y1="81.63" x2="99.24" y2="81.63"/><line class="l" x1="83.51" y1="98.04" x2="99.24" y2="98.04"/><line class="l" x1="83.51" y1="115.7" x2="99.24" y2="115.7"/><line class="l" x1="83.51" y1="63.96" x2="99.24" y2="63.96"/><line class="l" x1="78.48" y1="72.79" x2="103.64" y2="72.79"/><line class="l" x1="78.48" y1="106.87" x2="103.64" y2="106.87"/><line class="l" x1="72.19" y1="124.54" x2="109.94" y2="124.54"/><line class="l" x1="72.19" y1="55.13" x2="109.94" y2="55.13"/><g><path class="i" d="M70.22,70.27h1.33v5.05h-.63v-4.42h-1.25l.55-.63Z"/><path class="i" d="M74.12,70.26c.36,0,.68,.09,.94,.27,.26,.18,.46,.45,.61,.82,.14,.37,.21,.88,.21,1.53s-.07,1.18-.22,1.55c-.14,.37-.34,.64-.59,.81-.25,.17-.56,.26-.93,.26s-.69-.09-.94-.26-.45-.44-.6-.79-.22-.86-.22-1.52c0-.91,.14-1.58,.42-1.99,.31-.45,.75-.68,1.31-.68Zm.02,.9c-.16,0-.3,.05-.42,.15-.12,.1-.22,.28-.28,.53s-.1,.62-.1,1.1c0,.63,.07,1.07,.22,1.31,.15,.24,.34,.36,.58,.36s.41-.11,.55-.34c.16-.28,.25-.74,.25-1.38s-.07-1.11-.22-1.36-.34-.37-.57-.37Z"/></g><g><path class="i" d="M63.08,54.49h-1.16c.03-.54,.19-.97,.51-1.28,.31-.31,.72-.47,1.21-.47,.3,0,.57,.06,.81,.19,.23,.13,.42,.31,.56,.56,.14,.24,.21,.49,.21,.74,0,.3-.08,.62-.25,.96s-.48,.75-.93,1.22l-.56,.6h1.79v.63h-3.15v-.42l1.4-1.47c.34-.35,.57-.64,.68-.85s.17-.41,.17-.58-.06-.33-.17-.44c-.12-.12-.27-.18-.45-.18s-.34,.07-.46,.21-.19,.33-.2,.57Z"/><path class="i" d="M67.86,52.67c.36,0,.68,.09,.94,.27,.26,.18,.46,.45,.61,.82,.14,.37,.21,.88,.21,1.53s-.07,1.18-.22,1.55c-.14,.37-.34,.64-.59,.81-.25,.17-.56,.26-.93,.26s-.69-.09-.94-.26-.45-.44-.6-.79-.22-.86-.22-1.52c0-.91,.14-1.58,.42-1.99,.31-.45,.75-.68,1.31-.68Zm.02,.9c-.16,0-.3,.05-.42,.15-.12,.1-.22,.28-.28,.53s-.1,.62-.1,1.1c0,.63,.07,1.07,.22,1.31,.15,.24,.34,.36,.58,.36s.41-.11,.55-.34c.16-.28,.25-.74,.25-1.38s-.07-1.11-.22-1.36-.34-.37-.57-.37Z"/></g><g><path class="i" d="M113.42,54.49h-1.16c.03-.54,.19-.97,.51-1.28,.31-.31,.72-.47,1.21-.47,.3,0,.57,.06,.81,.19,.23,.13,.42,.31,.56,.56,.14,.24,.21,.49,.21,.74,0,.3-.08,.62-.25,.96s-.48,.75-.93,1.22l-.56,.6h1.79v.63h-3.15v-.42l1.4-1.47c.34-.35,.57-.64,.68-.85s.17-.41,.17-.58-.06-.33-.17-.44c-.12-.12-.27-.18-.45-.18s-.34,.07-.46,.21-.19,.33-.2,.57Z"/><path class="i" d="M117.8,52.6c.36,0,.68,.09,.94,.27,.26,.18,.46,.45,.61,.82,.14,.37,.21,.88,.21,1.53s-.07,1.18-.22,1.55c-.14,.37-.34,.64-.59,.81-.25,.17-.56,.26-.93,.26s-.69-.09-.94-.26-.45-.44-.6-.79-.22-.86-.22-1.52c0-.91,.14-1.58,.42-1.99,.31-.45,.75-.68,1.31-.68Zm.02,.9c-.16,0-.3,.05-.42,.15-.12,.1-.22,.28-.28,.53s-.1,.62-.1,1.1c0,.63,.07,1.07,.22,1.31,.15,.24,.34,.36,.58,.36s.41-.11,.55-.34c.16-.28,.25-.74,.25-1.38s-.07-1.11-.22-1.36-.34-.37-.57-.37Z"/></g><g><path class="i" d="M106.53,70.27h1.52v5.05h-.63v-4.42h-1.44l.55-.63Z"/><path class="i" d="M110.42,70.26c.36,0,.68,.09,.94,.27,.26,.18,.46,.45,.61,.82,.14,.37,.21,.88,.21,1.53s-.07,1.18-.22,1.55c-.14,.37-.34,.64-.59,.81-.25,.17-.56,.26-.93,.26s-.69-.09-.94-.26-.45-.44-.6-.79-.22-.86-.22-1.52c0-.91,.14-1.58,.42-1.99,.31-.45,.75-.68,1.31-.68Zm.02,.9c-.16,0-.3,.05-.42,.15-.12,.1-.22,.28-.28,.53s-.1,.62-.1,1.1c0,.63,.07,1.07,.22,1.31,.15,.24,.34,.36,.58,.36s.41-.11,.55-.34c.16-.28,.25-.74,.25-1.38s-.07-1.11-.22-1.36-.34-.37-.57-.37Z"/></g><g><path class="i" d="M70.22,104.35h1.33v5.05h-.63v-4.42h-1.25l.55-.63Z"/><path class="i" d="M74.12,104.34c.36,0,.68,.09,.94,.27,.26,.18,.46,.45,.61,.82,.14,.37,.21,.88,.21,1.53s-.07,1.18-.22,1.55c-.14,.37-.34,.64-.59,.81-.25,.17-.56,.26-.93,.26s-.69-.09-.94-.26-.45-.44-.6-.79-.22-.86-.22-1.52c0-.91,.14-1.58,.42-1.99,.31-.45,.75-.68,1.31-.68Zm.02,.9c-.16,0-.3,.05-.42,.15-.12,.1-.22,.28-.28,.53s-.1,.62-.1,1.1c0,.63,.07,1.07,.22,1.31,.15,.24,.34,.36,.58,.36s.41-.11,.55-.34c.16-.28,.25-.74,.25-1.38s-.07-1.11-.22-1.36-.34-.37-.57-.37Z"/></g><g><path class="i" d="M106.53,104.35h1.52v5.05h-.63v-4.42h-1.44l.55-.63Z"/><path class="i" d="M110.42,104.34c.36,0,.68,.09,.94,.27,.26,.18,.46,.45,.61,.82,.14,.37,.21,.88,.21,1.53s-.07,1.18-.22,1.55c-.14,.37-.34,.64-.59,.81-.25,.17-.56,.26-.93,.26s-.69-.09-.94-.26-.45-.44-.6-.79-.22-.86-.22-1.52c0-.91,.14-1.58,.42-1.99,.31-.45,.75-.68,1.31-.68Zm.02,.9c-.16,0-.3,.05-.42,.15-.12,.1-.22,.28-.28,.53s-.1,.62-.1,1.1c0,.63,.07,1.07,.22,1.31,.15,.24,.34,.36,.58,.36s.41-.11,.55-.34c.16-.28,.25-.74,.25-1.38s-.07-1.11-.22-1.36-.34-.37-.57-.37Z"/></g><g><path class="i" d="M63.08,123.91h-1.16c.03-.54,.19-.97,.51-1.28,.31-.31,.72-.47,1.21-.47,.3,0,.57,.06,.81,.19,.23,.13,.42,.31,.56,.56,.14,.24,.21,.49,.21,.74,0,.3-.08,.62-.25,.96s-.48,.75-.93,1.22l-.56,.6h1.79v.63h-3.15v-.42l1.4-1.47c.34-.35,.57-.64,.68-.85s.17-.41,.17-.58-.06-.33-.17-.44c-.12-.12-.27-.18-.45-.18s-.34,.07-.46,.21-.19,.33-.2,.57Z"/><path class="i" d="M67.86,122.08c.36,0,.68,.09,.94,.27,.26,.18,.46,.45,.61,.82,.14,.37,.21,.88,.21,1.53s-.07,1.18-.22,1.55c-.14,.37-.34,.64-.59,.81-.25,.17-.56,.26-.93,.26s-.69-.09-.94-.26-.45-.44-.6-.79-.22-.86-.22-1.52c0-.91,.14-1.58,.42-1.99,.31-.45,.75-.68,1.31-.68Zm.02,.9c-.16,0-.3,.05-.42,.15-.12,.1-.22,.28-.28,.53s-.1,.62-.1,1.1c0,.63,.07,1.07,.22,1.31,.15,.24,.34,.36,.58,.36s.41-.11,.55-.34c.16-.28,.25-.74,.25-1.38s-.07-1.11-.22-1.36-.34-.37-.57-.37Z"/></g><g><path class="i" d="M113.42,123.91h-1.16c.03-.54,.19-.97,.51-1.28,.31-.31,.72-.47,1.21-.47,.3,0,.57,.06,.81,.19,.23,.13,.42,.31,.56,.56,.14,.24,.21,.49,.21,.74,0,.3-.08,.62-.25,.96s-.48,.75-.93,1.22l-.56,.6h1.79v.63h-3.15v-.42l1.4-1.47c.34-.35,.57-.64,.68-.85s.17-.41,.17-.58-.06-.33-.17-.44c-.12-.12-.27-.18-.45-.18s-.34,.07-.46,.21-.19,.33-.2,.57Z"/><path class="i" d="M117.8,122.02c.36,0,.68,.09,.94,.27,.26,.18,.46,.45,.61,.82,.14,.37,.21,.88,.21,1.53s-.07,1.18-.22,1.55c-.14,.37-.34,.64-.59,.81-.25,.17-.56,.26-.93,.26s-.69-.09-.94-.26-.45-.44-.6-.79-.22-.86-.22-1.52c0-.91,.14-1.58,.42-1.99,.31-.45,.75-.68,1.31-.68Zm.02,.9c-.16,0-.3,.05-.42,.15-.12,.1-.22,.28-.28,.53s-.1,.62-.1,1.1c0,.63,.07,1.07,.22,1.31,.15,.24,.34,.36,.58,.36s.41-.11,.55-.34c.16-.28,.25-.74,.25-1.38s-.07-1.11-.22-1.36-.34-.37-.57-.37Z"/></g></g><g id="g"><path class="p" d="M89.57,0C40.1,0,0,40.22,0,89.83s40.1,89.83,89.57,89.83,89.57-40.22,89.57-89.83S139.03,0,89.57,0Zm0,150.01c-33.14,0-60-26.94-60-60.18S56.43,29.65,89.57,29.65s60,26.94,60,60.18-26.86,60.18-60,60.18Z"/><line class="n" x1=".05" y1="90.15" x2="29.35" y2="90.15"/><line class="n" x1="149.56" y1="90.15" x2="178.86" y2="90.15"/><line class="n" x1="16.46" y1="48.69" x2="36.59" y2="60.89"/><line class="n" x1="142.25" y1="60.89" x2="163.08" y2="48.69"/><line class="n" x1="58.92" y1="38" x2="46.96" y2="17.3"/><line class="n" x1="120.32" y1="38" x2="132.68" y2="17.3"/><polygon class="i" points="80.75 5.58 98.29 5.58 89.52 28.87 80.75 5.58"/><polygon class="i" points="40.78 40.2 36.59 44.3 45.26 48.69 40.78 40.2"/><polygon class="i" points="133.47 48.69 137.76 40.2 142.25 44.45 133.47 48.69"/></g><g><line class="o" x1="48.68" y1="90.71" x2="75.29" y2="90.71"/><line class="o" x1="103.63" y1="90.71" x2="130.23" y2="90.71"/><line class="o" x1="89.53" y1="90.59" x2="89.53" y2="90.59"/><line class="o" x1="89.45" y1="34.3" x2="83.72" y2="50.06"/><line class="o" x1="83.96" y1="50.11" x2="94.95" y2="50.11"/><line class="o" x1="95.19" y1="50.06" x2="89.45" y2="34.3"/><g><path class="j" d="M21.36,147.27c16.28,19.61,40.81,32.09,68.24,32.09s51.96-12.48,68.24-32.09H21.36Z"/><path class="m" d="M21.36,146.98c16.28,19.61,40.81,32.09,68.24,32.09s51.96-12.48,68.24-32.09H21.36Z"/></g><line class="n" x1="89.46" y1="147.27" x2="89.46" y2="165.25"/><line class="n" x1="120.69" y1="147.27" x2="120.69" y2="153.65"/><line class="n" x1="58.23" y1="147.27" x2="58.23" y2="153.65"/></g></g></g></g></svg>