<?xml version="1.0" encoding="UTF-8"?><svg xmlns="http://www.w3.org/2000/svg" viewBox="0 0 183.88 180.19"><defs><style>.d{fill:#fff;}.e,.f,.g,.h,.i{fill:none;}.e,.f,.g,.i{stroke:#fff;stroke-miterlimit:10;}.j{isolation:isolate;}.k{fill:#232323;}.f{stroke-width:2px;}.g{stroke-width:.5px;}.i{stroke-width:4px;}</style></defs><g id="a"/><g id="b"><g id="c"><g><g><ellipse class="d" cx="91.78" cy="90.09" rx="89.43" ry="87.62"/><path d="M91.78,2.97c49.04,0,88.93,39.08,88.93,87.12s-39.89,87.12-88.93,87.12S2.85,138.13,2.85,90.09,42.75,2.97,91.78,2.97m0-1C42.12,1.97,1.85,41.42,1.85,90.09s40.26,88.12,89.93,88.12,89.93-39.45,89.93-88.12S141.45,1.97,91.78,1.97h0Z"/></g><g><ellipse class="k" cx="91.94" cy="90.09" rx="91.94" ry="90.09"/><g><g class="j"><path class="d" d="M143.28,91.22l.53-.05c.04,.25,.13,.42,.26,.53s.29,.17,.49,.17c.17,0,.32-.04,.45-.11,.13-.08,.23-.18,.31-.3s.15-.3,.21-.52c.05-.22,.08-.44,.08-.66,0-.02,0-.06,0-.11-.11,.17-.26,.31-.45,.42-.19,.11-.4,.16-.62,.16-.37,0-.69-.13-.94-.4s-.39-.61-.39-1.05,.13-.81,.4-1.08,.61-.41,1.01-.41c.29,0,.56,.08,.8,.23s.43,.37,.55,.66c.13,.29,.19,.7,.19,1.24s-.06,1.01-.19,1.34-.31,.59-.56,.76c-.25,.17-.54,.26-.87,.26-.35,0-.64-.1-.86-.29s-.36-.46-.4-.81Zm2.26-1.95c0-.31-.08-.56-.25-.74-.17-.18-.37-.27-.61-.27s-.46,.1-.64,.29c-.18,.2-.27,.45-.27,.76,0,.28,.09,.51,.26,.68,.17,.17,.39,.26,.64,.26s.47-.09,.63-.26c.16-.18,.25-.42,.25-.73Z"/><path class="d" d="M146.78,91.22l.53-.05c.04,.25,.13,.42,.26,.53s.29,.17,.49,.17c.17,0,.32-.04,.45-.11,.13-.08,.23-.18,.31-.3s.15-.3,.21-.52c.05-.22,.08-.44,.08-.66,0-.02,0-.06,0-.11-.11,.17-.26,.31-.45,.42-.19,.11-.4,.16-.62,.16-.37,0-.69-.13-.94-.4s-.39-.61-.39-1.05,.13-.81,.4-1.08,.61-.41,1.01-.41c.29,0,.56,.08,.8,.23s.43,.37,.55,.66c.13,.29,.19,.7,.19,1.24s-.06,1.01-.19,1.34-.31,.59-.56,.76c-.25,.17-.54,.26-.87,.26-.35,0-.64-.1-.86-.29s-.36-.46-.4-.81Zm2.26-1.95c0-.31-.08-.56-.25-.74-.17-.18-.37-.27-.61-.27s-.46,.1-.64,.29c-.18,.2-.27,.45-.27,.76,0,.28,.09,.51,.26,.68,.17,.17,.39,.26,.64,.26s.47-.09,.63-.26c.16-.18,.25-.42,.25-.73Z"/><path class="d" d="M150.19,90.07c0-.52,.05-.94,.16-1.26s.27-.56,.49-.74c.22-.17,.49-.26,.81-.26,.24,0,.45,.05,.63,.14,.18,.09,.33,.23,.45,.41,.12,.18,.21,.4,.28,.66,.07,.26,.1,.61,.1,1.04,0,.52-.05,.93-.16,1.25-.11,.32-.27,.56-.49,.74-.22,.17-.49,.26-.82,.26-.43,0-.77-.15-1.02-.46-.3-.37-.44-.96-.44-1.79Zm.57,0c0,.72,.09,1.2,.26,1.44,.17,.24,.39,.36,.64,.36s.47-.12,.64-.36,.26-.72,.26-1.44-.09-1.21-.26-1.45c-.17-.24-.39-.36-.65-.36s-.46,.11-.61,.32c-.19,.27-.29,.76-.29,1.49Z"/></g><g class="j"><path class="d" d="M142.47,99.92l.53,.04c0,.25,.05,.44,.16,.57s.26,.21,.45,.25c.17,.03,.32,.02,.46-.04,.14-.05,.26-.13,.36-.25,.1-.11,.2-.27,.29-.47,.09-.2,.16-.42,.2-.64,0-.02,0-.06,.02-.11-.14,.15-.31,.26-.52,.34-.21,.07-.42,.09-.64,.05-.37-.06-.65-.25-.86-.55-.21-.3-.27-.67-.2-1.1,.08-.44,.27-.77,.59-.99s.67-.3,1.07-.23c.29,.05,.54,.17,.75,.36,.21,.19,.35,.44,.43,.74,.07,.3,.06,.72-.03,1.25-.1,.55-.24,.99-.42,1.29-.18,.31-.41,.53-.68,.66-.27,.13-.57,.17-.9,.11-.35-.06-.61-.2-.8-.43-.19-.23-.27-.51-.25-.86Zm2.57-1.53c.06-.31,.02-.56-.12-.77-.13-.21-.32-.33-.55-.37-.24-.04-.47,.02-.68,.18-.21,.16-.35,.4-.41,.71-.05,.28,0,.52,.13,.72,.14,.2,.33,.32,.58,.37,.25,.04,.47,0,.67-.15,.19-.15,.32-.37,.37-.68Z"/><path class="d" d="M146.9,99.3c-.21-.12-.36-.26-.44-.43-.08-.17-.1-.36-.07-.57,.06-.32,.22-.56,.49-.74s.6-.23,.98-.16c.39,.07,.68,.23,.88,.49,.2,.26,.27,.55,.21,.87-.04,.2-.12,.37-.26,.5s-.32,.22-.55,.26c.26,.13,.44,.31,.54,.53,.11,.22,.14,.46,.09,.73-.07,.37-.26,.66-.57,.87s-.69,.27-1.12,.2c-.44-.08-.77-.26-.99-.56-.22-.3-.3-.64-.23-1.02,.05-.28,.17-.5,.35-.67,.18-.17,.41-.26,.69-.28Zm-.48,1.05c-.03,.15-.02,.31,.03,.46,.05,.15,.14,.28,.27,.39,.13,.1,.28,.17,.45,.2,.26,.04,.49,0,.69-.13,.2-.13,.32-.33,.37-.58,.05-.26,0-.48-.15-.68-.14-.2-.35-.32-.61-.36-.26-.04-.48,0-.68,.14s-.32,.33-.36,.58Zm.54-1.97c-.04,.21,0,.38,.11,.54,.11,.15,.27,.25,.49,.29,.21,.04,.39,0,.55-.1,.16-.11,.25-.25,.29-.44,.04-.19,0-.37-.12-.53-.12-.16-.27-.25-.48-.29-.21-.04-.39,0-.55,.11-.16,.11-.26,.25-.29,.43Z"/><path class="d" d="M149.29,100.96l.58,.05c0,.28,.05,.5,.18,.67,.13,.16,.3,.26,.52,.3,.26,.05,.5-.01,.72-.17,.22-.16,.35-.4,.41-.72,.05-.3,.01-.56-.13-.76-.14-.21-.36-.33-.64-.38-.18-.03-.34-.02-.5,.03-.16,.05-.28,.14-.39,.25l-.5-.15,.83-2.16,2.2,.38-.09,.51-1.77-.31-.45,1.12c.3-.14,.59-.18,.88-.13,.39,.07,.69,.25,.91,.56,.22,.31,.29,.67,.22,1.08-.07,.39-.25,.71-.53,.96-.35,.3-.77,.41-1.26,.33-.4-.07-.71-.24-.93-.5-.21-.26-.31-.58-.28-.95Z"/></g><g class="j"><path class="d" d="M139.79,108.36l.52,.13c-.04,.24-.02,.44,.05,.59,.08,.15,.21,.25,.4,.32,.16,.06,.31,.07,.46,.04,.15-.03,.28-.09,.4-.18s.25-.23,.37-.42c.13-.18,.23-.38,.31-.59,0-.02,.02-.06,.03-.1-.16,.13-.35,.21-.57,.24-.22,.04-.43,.02-.64-.06-.35-.12-.6-.35-.75-.69-.15-.33-.15-.71,0-1.11,.16-.42,.41-.71,.75-.88,.35-.17,.71-.18,1.09-.04,.28,.1,.5,.26,.67,.49,.17,.23,.27,.49,.29,.8s-.07,.72-.25,1.23c-.2,.53-.41,.93-.65,1.2-.23,.27-.5,.45-.79,.53-.29,.08-.6,.07-.91-.04-.33-.12-.57-.3-.71-.56-.14-.25-.17-.55-.09-.89Zm2.8-1.07c.11-.29,.12-.55,.02-.78-.1-.23-.25-.38-.48-.46-.23-.08-.47-.06-.71,.06-.24,.12-.41,.33-.52,.63-.1,.26-.1,.51,0,.73,.1,.22,.27,.38,.51,.46,.24,.09,.47,.07,.68-.04,.22-.11,.38-.31,.49-.6Z"/><path class="d" d="M144.27,108.5c-.19-.15-.3-.32-.36-.5-.05-.18-.04-.37,.04-.57,.11-.3,.32-.52,.61-.64,.3-.13,.63-.12,1,0,.37,.13,.63,.34,.77,.63,.15,.29,.17,.59,.05,.89-.07,.19-.19,.34-.34,.45s-.35,.16-.59,.16c.23,.18,.38,.38,.44,.61,.07,.23,.05,.48-.04,.73-.13,.35-.37,.61-.71,.75-.34,.15-.72,.15-1.14,0-.42-.15-.71-.39-.87-.72-.17-.33-.18-.68-.05-1.04,.1-.27,.25-.47,.46-.6,.21-.13,.45-.19,.73-.16Zm-.66,.95c-.05,.15-.07,.3-.05,.46,.02,.16,.08,.3,.2,.43,.11,.12,.25,.21,.41,.27,.25,.09,.48,.08,.7-.02,.22-.1,.37-.27,.46-.51,.09-.25,.08-.48-.02-.7-.11-.22-.28-.37-.53-.46-.24-.09-.48-.08-.7,.02-.22,.1-.37,.27-.46,.51Zm.88-1.85c-.07,.2-.07,.38,.01,.55,.08,.17,.23,.29,.43,.37,.2,.07,.39,.07,.56-.01,.17-.08,.29-.21,.36-.38,.07-.19,.06-.37-.02-.54-.08-.17-.23-.3-.42-.37-.2-.07-.38-.07-.56,.01-.18,.08-.3,.2-.36,.38Z"/><path class="d" d="M146.68,109.59c.18-.49,.38-.87,.59-1.13,.21-.26,.45-.44,.71-.53,.26-.09,.55-.08,.85,.03,.23,.08,.41,.2,.55,.35,.14,.15,.23,.33,.28,.54,.05,.21,.06,.44,.03,.71-.03,.26-.12,.6-.27,1.01-.18,.49-.38,.86-.59,1.12-.21,.26-.45,.44-.71,.53-.26,.09-.55,.08-.86-.03-.41-.15-.67-.4-.8-.77-.15-.44-.08-1.05,.21-1.83Zm.53,.19c-.25,.68-.34,1.16-.26,1.44,.08,.28,.24,.47,.47,.55s.48,.04,.73-.12c.25-.17,.5-.59,.75-1.27,.25-.68,.34-1.16,.26-1.45-.08-.28-.24-.47-.48-.55-.24-.08-.46-.05-.68,.09-.27,.19-.54,.62-.79,1.3Z"/></g><g class="j"><path class="d" d="M142.72,82.54l.51-.14c.09,.23,.2,.39,.35,.48,.15,.09,.32,.11,.51,.08,.17-.03,.31-.09,.42-.19,.11-.1,.2-.21,.25-.35,.06-.14,.1-.32,.11-.54,.02-.22,0-.44-.04-.67,0-.02-.01-.06-.02-.11-.08,.19-.2,.35-.37,.49-.17,.14-.36,.22-.58,.26-.37,.06-.7-.01-1-.23-.3-.22-.49-.54-.57-.96-.08-.44-.01-.82,.21-1.13,.22-.31,.52-.5,.92-.57,.29-.05,.56-.02,.83,.09,.27,.11,.49,.29,.66,.55s.31,.66,.41,1.19c.1,.55,.12,1.01,.05,1.36-.06,.35-.2,.63-.41,.85-.21,.21-.48,.35-.81,.41-.35,.06-.65,.01-.9-.14-.25-.15-.43-.39-.54-.73Zm1.88-2.3c-.06-.31-.18-.53-.38-.68-.2-.15-.41-.21-.65-.17-.24,.04-.43,.17-.58,.4s-.19,.49-.13,.8c.05,.28,.18,.49,.38,.63,.2,.14,.43,.19,.68,.15,.25-.04,.44-.17,.57-.37,.13-.2,.17-.45,.11-.76Z"/><path class="d" d="M146.16,81.94l.51-.14c.09,.23,.2,.39,.35,.48,.14,.09,.31,.11,.51,.08,.17-.03,.31-.09,.42-.19s.2-.21,.26-.35c.06-.14,.09-.32,.11-.54,.02-.22,0-.44-.04-.66,0-.02-.01-.06-.02-.11-.08,.19-.2,.35-.37,.49s-.36,.22-.58,.26c-.37,.06-.7-.01-1-.23-.3-.22-.49-.54-.57-.96-.08-.44,0-.82,.21-1.13,.22-.32,.52-.51,.92-.57,.29-.05,.56-.02,.83,.09,.27,.11,.49,.3,.66,.56,.17,.26,.31,.66,.41,1.19,.1,.55,.12,1.01,.05,1.36-.06,.35-.2,.63-.41,.85-.21,.21-.48,.35-.81,.41-.35,.06-.65,.01-.9-.14-.25-.15-.43-.39-.54-.73Zm1.88-2.3c-.05-.31-.18-.53-.38-.68-.2-.15-.42-.21-.65-.17-.24,.04-.43,.17-.58,.4-.15,.22-.19,.49-.13,.8,.05,.28,.18,.49,.38,.63,.2,.14,.43,.19,.68,.15,.25-.04,.44-.17,.57-.37,.13-.2,.17-.45,.11-.76Z"/><path class="d" d="M149.49,81.23l.56-.14c.09,.26,.23,.45,.41,.56,.18,.11,.38,.15,.59,.11,.26-.04,.47-.18,.61-.41,.15-.22,.19-.5,.13-.82-.05-.3-.18-.53-.39-.67-.21-.14-.45-.19-.73-.14-.18,.03-.33,.1-.45,.2s-.22,.22-.28,.36l-.52,.02,.03-2.3,2.2-.38,.09,.51-1.77,.31-.03,1.21c.23-.23,.5-.37,.79-.42,.39-.07,.74,0,1.05,.22,.31,.22,.51,.53,.58,.94,.07,.39,.01,.75-.17,1.08-.22,.4-.58,.64-1.07,.73-.4,.07-.75,.02-1.04-.16-.29-.18-.49-.44-.59-.8Z"/></g><g class="j"><path class="d" d="M139.85,75.35l-.52,.19-1.2-3.24c-.08,.16-.2,.34-.36,.53-.16,.19-.31,.34-.45,.46l-.18-.49c.24-.24,.43-.49,.58-.76,.15-.27,.23-.51,.26-.72l.33-.12,1.54,4.16Z"/><path class="d" d="M140.42,72.83c-.18-.49-.28-.9-.29-1.24,0-.34,.06-.62,.2-.85,.14-.24,.37-.41,.68-.52,.23-.08,.44-.11,.65-.08,.2,.03,.39,.11,.57,.24,.17,.13,.34,.3,.49,.52,.15,.22,.31,.54,.46,.95,.18,.49,.28,.9,.29,1.23,0,.33-.06,.62-.2,.86-.14,.23-.37,.41-.68,.52-.41,.15-.78,.12-1.12-.09-.41-.25-.75-.76-1.04-1.54Zm.53-.19c.25,.68,.5,1.1,.75,1.27,.25,.17,.49,.21,.73,.12s.4-.27,.48-.55c.08-.28,0-.76-.26-1.44-.25-.68-.5-1.11-.75-1.27-.25-.17-.49-.21-.73-.12-.24,.08-.39,.25-.46,.5-.08,.32,0,.81,.25,1.49Z"/><path class="d" d="M143.7,71.66c-.18-.49-.28-.9-.29-1.24,0-.34,.06-.62,.2-.85,.14-.24,.37-.41,.68-.52,.23-.08,.44-.11,.65-.08,.21,.03,.39,.11,.57,.24,.17,.13,.34,.3,.49,.52,.15,.22,.31,.53,.46,.94,.18,.49,.28,.9,.28,1.23,0,.33-.06,.62-.2,.86-.14,.23-.37,.41-.68,.52-.41,.15-.78,.12-1.12-.09-.41-.25-.75-.76-1.04-1.54Zm.53-.19c.25,.68,.5,1.1,.75,1.27s.49,.21,.73,.12,.4-.27,.47-.55c.08-.29,0-.76-.26-1.44-.25-.68-.5-1.11-.75-1.27-.25-.17-.49-.21-.73-.12-.24,.08-.39,.25-.46,.5-.09,.32,0,.81,.25,1.49Z"/><path class="d" d="M146.99,70.49c-.18-.49-.28-.9-.28-1.24,0-.34,.06-.62,.2-.85s.37-.41,.67-.52c.23-.08,.44-.11,.65-.08,.21,.03,.39,.11,.57,.24,.17,.13,.34,.3,.49,.52,.15,.22,.31,.53,.46,.94,.18,.49,.27,.9,.28,1.23,0,.33-.06,.62-.2,.86-.14,.23-.37,.41-.68,.52-.41,.15-.78,.12-1.12-.09-.41-.25-.75-.76-1.04-1.54Zm.53-.19c.25,.68,.5,1.1,.75,1.27,.25,.17,.49,.21,.73,.12s.4-.27,.47-.55c.08-.29,0-.76-.26-1.44-.25-.68-.5-1.11-.75-1.27-.25-.17-.49-.21-.73-.12-.24,.08-.39,.25-.46,.5-.08,.32,0,.81,.25,1.49Z"/></g><g class="j"><path class="d" d="M136.52,67.43l-.48,.27-1.76-2.99c-.05,.17-.14,.37-.26,.58-.12,.21-.24,.39-.36,.53l-.27-.45c.19-.27,.34-.56,.44-.84,.1-.29,.14-.54,.12-.75l.31-.17,2.26,3.83Z"/><path class="d" d="M136.63,64.85c-.27-.45-.43-.84-.5-1.17-.07-.33-.05-.62,.05-.88,.1-.25,.29-.46,.57-.62,.21-.12,.42-.18,.62-.19,.21,0,.41,.04,.6,.14,.19,.1,.39,.24,.58,.43,.19,.19,.4,.47,.62,.85,.26,.45,.43,.84,.5,1.16,.07,.33,.05,.62-.04,.88-.1,.25-.29,.46-.58,.62-.38,.21-.75,.25-1.12,.11-.44-.17-.88-.62-1.3-1.33Zm.49-.28c.37,.63,.69,1,.96,1.12,.27,.12,.52,.12,.74,0,.22-.12,.34-.33,.37-.62,.03-.29-.14-.75-.51-1.38-.37-.63-.69-1-.96-1.12s-.52-.12-.74,0c-.22,.12-.34,.31-.36,.57-.03,.33,.14,.8,.51,1.43Z"/><path class="d" d="M139.66,63.14c-.27-.45-.43-.84-.5-1.17-.07-.33-.05-.62,.05-.88,.1-.25,.29-.46,.57-.62,.21-.12,.42-.18,.62-.19s.41,.04,.6,.14c.19,.1,.39,.24,.58,.43,.19,.19,.4,.47,.62,.85,.26,.45,.43,.84,.5,1.17,.07,.33,.05,.62-.04,.88-.1,.25-.29,.46-.58,.62-.38,.21-.75,.25-1.12,.1-.44-.17-.88-.62-1.3-1.33Zm.49-.28c.37,.63,.69,1,.96,1.12,.27,.12,.52,.12,.74,0,.22-.12,.34-.33,.37-.62s-.14-.75-.51-1.38c-.37-.63-.69-1-.96-1.12-.27-.12-.52-.12-.74,0-.22,.12-.34,.32-.36,.57-.03,.33,.14,.8,.51,1.43Z"/><path class="d" d="M143.2,62.31l.48-.33c.18,.22,.37,.35,.58,.39s.41,.01,.6-.1c.23-.13,.38-.33,.43-.59,.06-.26,0-.53-.16-.81-.16-.27-.36-.44-.6-.5-.24-.07-.49-.03-.74,.11-.15,.09-.27,.2-.36,.34-.08,.14-.13,.28-.13,.43l-.48,.2-.78-2.17,1.94-1.1,.26,.45-1.55,.88,.39,1.14c.14-.29,.34-.51,.59-.66,.34-.19,.7-.24,1.07-.14,.37,.1,.66,.33,.88,.69,.2,.35,.28,.7,.22,1.07-.07,.45-.32,.8-.75,1.04-.35,.2-.7,.27-1.04,.2-.34-.07-.62-.25-.84-.56Z"/></g><g class="j"><path class="d" d="M131.84,60.17l-.42,.35-2.26-2.64c-.02,.18-.07,.38-.16,.61-.08,.23-.17,.43-.26,.58l-.34-.4c.14-.3,.24-.6,.28-.91,.04-.3,.04-.55,0-.76l.27-.22,2.9,3.39Z"/><path class="d" d="M131.49,57.61c-.34-.4-.58-.75-.7-1.07-.12-.31-.16-.6-.11-.87,.05-.27,.2-.5,.45-.71,.18-.15,.38-.25,.58-.29,.2-.04,.41-.03,.62,.03,.21,.06,.42,.17,.64,.33,.22,.15,.47,.4,.76,.74,.34,.4,.57,.75,.7,1.06,.13,.31,.16,.6,.11,.87-.05,.27-.2,.51-.46,.71-.33,.27-.69,.37-1.08,.29-.47-.09-.97-.46-1.52-1.09Zm.43-.36c.47,.55,.86,.87,1.15,.94,.29,.07,.53,.03,.73-.13,.19-.16,.28-.39,.25-.68-.03-.29-.27-.72-.75-1.27-.48-.56-.86-.87-1.15-.94-.29-.07-.53-.03-.73,.13-.19,.16-.28,.37-.26,.62,.03,.33,.28,.76,.76,1.32Z"/><path class="d" d="M137.19,55.77l-.42,.35-2.26-2.64c-.02,.18-.07,.38-.16,.62-.08,.23-.17,.42-.26,.58l-.34-.4c.14-.3,.24-.61,.28-.91,.04-.3,.04-.55-.01-.76l.27-.22,2.9,3.39Z"/><path class="d" d="M136.85,53.21c-.34-.4-.57-.75-.7-1.07-.12-.31-.16-.6-.11-.87,.05-.27,.2-.5,.45-.71,.18-.15,.38-.25,.58-.29s.41-.03,.62,.03c.21,.06,.42,.17,.64,.33,.22,.16,.47,.4,.76,.74,.34,.4,.57,.75,.7,1.06s.16,.6,.11,.87c-.05,.27-.2,.51-.46,.71-.33,.27-.69,.37-1.08,.29-.47-.09-.97-.46-1.52-1.09Zm.43-.36c.47,.55,.86,.87,1.15,.94,.29,.08,.53,.03,.73-.13,.19-.16,.28-.39,.25-.68-.03-.29-.27-.72-.75-1.27-.48-.56-.86-.87-1.15-.94-.29-.07-.53-.03-.73,.13-.19,.16-.28,.37-.26,.62,.03,.33,.28,.76,.76,1.32Z"/></g><g class="j"><path class="d" d="M125.84,53.89l-.35,.42-2.7-2.22c.01,.18,0,.39-.04,.63-.04,.24-.09,.45-.16,.62l-.41-.34c.09-.32,.13-.64,.12-.94,0-.3-.06-.55-.15-.75l.23-.27,3.46,2.84Z"/><path class="d" d="M125.05,51.43c-.41-.33-.7-.65-.88-.93-.18-.29-.26-.57-.26-.84,0-.27,.11-.53,.32-.78,.16-.18,.33-.31,.52-.38,.19-.07,.4-.1,.61-.07,.22,.03,.45,.1,.69,.21,.25,.11,.54,.31,.88,.59,.4,.33,.7,.64,.87,.93s.27,.57,.26,.84c0,.27-.11,.53-.32,.78-.28,.33-.62,.48-1.01,.47-.48-.01-1.04-.29-1.69-.82Zm.36-.43c.57,.46,1,.71,1.3,.73,.3,.02,.53-.06,.69-.25,.16-.19,.21-.43,.13-.71s-.4-.66-.96-1.12c-.57-.47-1-.71-1.3-.74-.3-.02-.53,.06-.69,.25-.16,.19-.21,.41-.14,.66,.09,.32,.41,.71,.98,1.17Z"/><path class="d" d="M130.34,48.65l-.35,.41-2.7-2.22c.01,.18,0,.39-.04,.63-.04,.24-.09,.45-.16,.62l-.41-.34c.09-.32,.13-.64,.12-.94s-.06-.55-.15-.75l.23-.27,3.46,2.84Z"/><path class="d" d="M130.34,46.84l.33-.47c.24,.15,.47,.2,.68,.18,.21-.03,.39-.12,.53-.29,.17-.2,.24-.43,.2-.7-.04-.26-.18-.5-.43-.71-.24-.2-.49-.29-.74-.27-.25,.02-.47,.13-.66,.35-.11,.13-.19,.28-.22,.44s-.02,.31,.02,.45l-.38,.35-1.49-1.78,1.44-1.68,.4,.33-1.15,1.35,.77,.94c.03-.32,.14-.59,.33-.82,.25-.29,.57-.46,.95-.49,.38-.03,.74,.09,1.06,.36,.31,.26,.5,.57,.58,.93,.09,.45-.02,.86-.34,1.23-.26,.31-.57,.49-.91,.54-.34,.05-.67-.03-.98-.24Z"/></g><g class="j"><path class="d" d="M118.92,48.55l-.28,.47-3.05-1.72c.04,.17,.07,.38,.07,.63,0,.25-.01,.46-.04,.63l-.46-.26c.03-.33,.01-.65-.05-.95-.06-.3-.15-.53-.27-.71l.18-.3,3.91,2.21Z"/><path class="d" d="M117.71,46.27c-.46-.26-.8-.52-1.03-.77s-.36-.51-.41-.78c-.04-.27,.02-.54,.18-.82,.12-.21,.27-.36,.44-.47,.17-.11,.37-.17,.59-.18,.22,0,.46,.02,.72,.09,.26,.07,.58,.22,.97,.43,.46,.26,.8,.51,1.03,.76,.23,.25,.36,.51,.41,.78,.04,.27-.01,.54-.18,.82-.22,.37-.52,.58-.91,.64-.47,.07-1.07-.1-1.8-.52Zm.28-.48c.64,.36,1.11,.53,1.41,.5,.3-.03,.51-.15,.64-.36,.13-.21,.13-.46,0-.72-.13-.27-.51-.58-1.15-.94-.64-.36-1.11-.53-1.41-.5-.3,.03-.51,.15-.64,.37-.13,.21-.13,.44-.02,.67,.14,.3,.53,.62,1.17,.99Z"/><path class="d" d="M122.37,41.67l.46,.26-1.49,2.52c-.12-.06-.22-.14-.3-.24-.14-.16-.25-.36-.34-.6-.09-.24-.16-.55-.23-.95-.1-.61-.21-1.05-.33-1.31-.12-.26-.27-.44-.45-.54-.19-.11-.39-.13-.6-.07-.21,.06-.38,.2-.5,.41-.13,.23-.17,.45-.11,.66,.06,.21,.21,.39,.45,.53l-.33,.45c-.35-.24-.55-.52-.62-.85-.07-.32,0-.67,.22-1.03,.22-.37,.49-.6,.82-.69,.33-.1,.65-.06,.96,.12,.16,.09,.29,.21,.4,.35,.12,.15,.21,.34,.29,.58s.17,.61,.26,1.11c.07,.42,.13,.69,.17,.82s.09,.24,.14,.34l1.1-1.87Z"/><path class="d" d="M121.2,40.34c-.46-.26-.8-.52-1.03-.77-.23-.25-.36-.51-.41-.78-.04-.27,.01-.54,.18-.82,.12-.2,.27-.36,.44-.47,.17-.11,.37-.17,.59-.18,.22-.01,.46,.02,.72,.09,.26,.07,.58,.22,.97,.44,.46,.26,.8,.51,1.03,.76s.36,.51,.41,.78c.05,.27-.01,.54-.18,.82-.22,.37-.52,.58-.91,.64-.47,.07-1.07-.1-1.81-.52Zm.28-.48c.64,.36,1.11,.53,1.41,.5s.51-.15,.64-.36c.13-.21,.13-.46,0-.72-.13-.27-.51-.58-1.15-.94-.64-.36-1.11-.53-1.41-.5-.3,.03-.51,.15-.64,.37-.13,.22-.14,.44-.02,.67,.14,.3,.53,.62,1.17,.99Z"/></g><g class="j"><path class="d" d="M111.15,44.63l-.19,.51-3.3-1.18c.07,.17,.13,.37,.18,.61,.04,.24,.07,.45,.07,.63l-.5-.18c-.03-.33-.1-.64-.22-.92s-.25-.5-.4-.65l.12-.33,4.24,1.51Z"/><path class="d" d="M109.55,42.58c-.5-.18-.88-.37-1.15-.58-.27-.21-.45-.44-.54-.7s-.08-.54,.03-.84c.08-.22,.2-.4,.35-.54,.15-.13,.34-.23,.55-.27,.21-.05,.45-.06,.72-.03,.27,.03,.61,.11,1.03,.26,.5,.18,.88,.37,1.14,.58,.27,.21,.45,.44,.54,.7,.09,.26,.08,.54-.03,.84-.15,.4-.41,.66-.79,.79-.45,.15-1.08,.08-1.87-.2Zm.19-.52c.69,.25,1.18,.33,1.47,.25,.29-.08,.48-.23,.56-.47,.09-.23,.04-.47-.13-.71-.17-.24-.6-.49-1.29-.73-.7-.25-1.19-.33-1.48-.26-.29,.08-.48,.23-.56,.47-.09,.23-.05,.46,.09,.67,.19,.27,.64,.52,1.33,.77Z"/><path class="d" d="M113.32,37.26l.5,.18-1.02,2.74c-.13-.04-.24-.1-.34-.19-.16-.14-.31-.32-.44-.54-.13-.22-.26-.52-.39-.89-.21-.58-.39-1-.56-1.23-.16-.24-.34-.39-.54-.46-.21-.07-.41-.06-.6,.03-.2,.09-.34,.26-.42,.49-.09,.24-.09,.47,0,.67,.1,.2,.28,.35,.54,.45l-.25,.5c-.38-.18-.64-.42-.76-.73-.12-.31-.11-.66,.04-1.05,.15-.4,.38-.67,.69-.82,.31-.15,.63-.17,.97-.05,.17,.06,.32,.15,.46,.28,.14,.13,.27,.3,.39,.52,.12,.22,.27,.57,.45,1.05,.15,.4,.25,.66,.31,.78,.06,.12,.13,.23,.2,.32l.75-2.03Z"/><path class="d" d="M112.92,36.5l.15-.55c.28,.05,.51,.03,.7-.06,.19-.1,.32-.25,.39-.45,.09-.25,.07-.49-.05-.72-.13-.24-.34-.41-.66-.52-.3-.11-.56-.11-.79,0-.23,.1-.4,.29-.49,.55-.06,.16-.08,.33-.05,.48,.03,.16,.09,.3,.18,.42l-.24,.45-2.02-1.17,.76-2.06,.5,.18-.61,1.65,1.05,.63c-.09-.31-.08-.6,.02-.88,.13-.36,.38-.62,.72-.78,.35-.16,.72-.16,1.12-.02,.38,.14,.67,.36,.87,.68,.24,.39,.28,.81,.11,1.27-.14,.38-.36,.65-.67,.81-.3,.16-.64,.2-1.01,.1Z"/></g><g class="j"><path class="d" d="M102.97,42.04l-.1,.53-3.46-.6c.1,.15,.2,.34,.28,.57,.09,.23,.15,.43,.18,.61l-.53-.09c-.09-.32-.22-.61-.38-.87s-.33-.45-.51-.58l.06-.34,4.45,.77Z"/><path class="d" d="M101.03,40.29c-.52-.09-.94-.21-1.24-.38-.3-.16-.52-.36-.65-.6-.14-.24-.17-.52-.12-.83,.04-.23,.13-.43,.25-.59,.13-.16,.29-.28,.49-.36,.2-.08,.44-.13,.71-.16s.62,0,1.06,.08c.52,.09,.93,.21,1.23,.37,.3,.16,.52,.36,.66,.6,.14,.24,.18,.52,.12,.83-.08,.42-.29,.72-.64,.91-.42,.22-1.05,.26-1.88,.12Zm.1-.55c.73,.12,1.23,.13,1.5,0s.43-.31,.47-.56c.04-.24-.04-.47-.25-.68-.21-.21-.68-.38-1.4-.5-.73-.13-1.23-.13-1.5,0-.27,.12-.43,.31-.47,.56-.04,.24,.03,.46,.21,.64,.24,.23,.72,.41,1.45,.53Z"/><path class="d" d="M102.65,37.09l.02-.54c.32,0,.56-.07,.72-.2,.16-.12,.26-.29,.3-.5,.04-.25,0-.48-.15-.68-.15-.2-.35-.33-.61-.37-.25-.04-.47,0-.66,.13-.19,.13-.31,.32-.35,.57-.02,.1-.02,.23,0,.39l-.47-.14s.02-.06,.02-.08c.04-.23,.02-.44-.07-.64-.09-.2-.26-.33-.51-.37-.2-.03-.38,0-.53,.11-.15,.11-.25,.27-.29,.48-.04,.21,0,.39,.11,.55,.11,.16,.29,.29,.55,.37l-.19,.52c-.35-.13-.61-.32-.77-.59-.16-.27-.21-.57-.15-.91,.04-.24,.13-.45,.27-.63,.14-.18,.31-.31,.51-.38,.2-.07,.4-.09,.6-.06,.19,.03,.36,.11,.5,.24,.14,.13,.24,.3,.29,.51,.11-.25,.27-.42,.48-.53,.21-.11,.47-.14,.75-.09,.39,.07,.69,.26,.91,.58,.22,.32,.29,.69,.21,1.12-.07,.38-.24,.68-.52,.89-.28,.21-.6,.3-.98,.27Z"/><path class="d" d="M102.24,33.55c-.52-.09-.94-.22-1.24-.38-.3-.16-.52-.36-.65-.6-.14-.24-.17-.52-.12-.83,.04-.23,.13-.43,.25-.59,.13-.16,.29-.28,.49-.36,.2-.08,.44-.14,.71-.16,.27-.02,.62,0,1.06,.08,.52,.09,.93,.21,1.23,.38,.3,.16,.52,.36,.66,.6,.14,.24,.18,.52,.12,.83-.08,.42-.29,.72-.64,.91-.42,.22-1.05,.26-1.88,.12Zm.1-.55c.73,.13,1.23,.13,1.5,0,.27-.12,.43-.31,.47-.55,.04-.25-.04-.47-.25-.68-.21-.21-.68-.38-1.4-.5-.73-.13-1.23-.13-1.5,0-.27,.13-.43,.31-.47,.56-.04,.24,.03,.46,.21,.64,.24,.23,.72,.41,1.45,.53Z"/></g><g class="j"><path class="d" d="M94.13,40.93v.54h-3.52c.13,.13,.25,.3,.38,.51,.13,.21,.22,.4,.29,.57h-.53c-.15-.3-.32-.57-.53-.79-.21-.23-.41-.39-.6-.48v-.35h4.51Z"/><path class="d" d="M91.91,39.54c-.53,0-.96-.05-1.28-.16s-.57-.27-.75-.48c-.18-.21-.26-.48-.26-.8,0-.24,.05-.44,.15-.62,.1-.18,.24-.33,.42-.44,.18-.12,.41-.21,.67-.27,.26-.07,.62-.1,1.06-.1,.53,0,.95,.05,1.28,.16,.32,.11,.58,.27,.75,.48,.18,.21,.27,.48,.27,.8,0,.42-.16,.76-.47,1-.37,.29-.98,.44-1.83,.44Zm0-.56c.74,0,1.23-.08,1.47-.25,.25-.17,.37-.38,.37-.63s-.12-.46-.37-.63c-.25-.17-.74-.25-1.47-.25s-1.23,.08-1.47,.25c-.24,.17-.37,.38-.37,.63s.11,.45,.32,.6c.27,.19,.78,.28,1.52,.28Z"/><path class="d" d="M92.94,36.12l-.07-.54c.31-.06,.54-.17,.68-.32,.14-.15,.21-.33,.21-.55,0-.25-.09-.47-.27-.64-.18-.18-.4-.26-.67-.26s-.46,.08-.63,.24c-.16,.16-.25,.37-.25,.62,0,.1,.02,.23,.06,.38l-.48-.06s0-.06,0-.09c0-.23-.06-.44-.18-.62s-.31-.28-.57-.28c-.2,0-.37,.07-.5,.2-.13,.13-.2,.31-.2,.52s.07,.39,.2,.53,.34,.23,.61,.27l-.1,.54c-.37-.07-.66-.22-.86-.45-.2-.23-.3-.53-.3-.87,0-.24,.05-.46,.16-.67,.1-.2,.25-.36,.43-.46s.38-.16,.58-.16,.37,.05,.53,.15c.16,.1,.29,.25,.38,.45,.06-.26,.19-.46,.38-.61,.19-.14,.44-.22,.73-.22,.39,0,.73,.14,1,.42,.27,.28,.41,.63,.41,1.06,0,.39-.12,.71-.35,.96-.23,.25-.54,.4-.91,.44Z"/><path class="d" d="M92.95,32.7l-.05-.57c.28-.04,.49-.14,.64-.29,.14-.15,.21-.34,.21-.55,0-.26-.1-.48-.3-.66-.2-.18-.47-.27-.8-.27-.31,0-.56,.09-.75,.26-.18,.17-.27,.4-.27,.68,0,.17,.04,.33,.12,.47,.08,.14,.19,.25,.31,.33l-.07,.51-2.31-.43v-2.19h.53v1.76l1.21,.24c-.19-.26-.28-.54-.28-.83,0-.38,.14-.71,.41-.97,.27-.26,.62-.4,1.05-.4s.76,.12,1.05,.35c.36,.28,.55,.67,.55,1.16,0,.4-.12,.73-.34,.98-.23,.25-.53,.4-.91,.43Z"/></g><line class="f" x1="156.7" y1="90.43" x2="162.41" y2="90.43"/><line class="e" x1="157.88" y1="88.02" x2="161.3" y2="87.91"/><line class="e" x1="157.76" y1="85.77" x2="161.18" y2="85.54"/><line class="e" x1="157.57" y1="83.52" x2="160.98" y2="83.17"/><line class="e" x1="157.29" y1="81.28" x2="160.69" y2="80.81"/><line class="f" x1="155.58" y1="101.28" x2="161.54" y2="102.31"/><line class="e" x1="157.24" y1="99.27" x2="160.64" y2="99.74"/><line class="e" x1="157.53" y1="97.04" x2="160.94" y2="97.39"/><line class="e" x1="157.74" y1="94.79" x2="161.15" y2="95.02"/><line class="e" x1="157.86" y1="92.54" x2="161.29" y2="92.65"/><line class="f" x1="152.63" y1="111.94" x2="158.32" y2="113.97"/><line class="e" x1="154.62" y1="110.25" x2="157.88" y2="111.29"/><line class="e" x1="155.3" y1="108.09" x2="158.6" y2="109.02"/><line class="e" x1="155.9" y1="105.91" x2="159.23" y2="106.73"/><line class="e" x1="156.43" y1="103.72" x2="159.78" y2="104.42"/><line class="e" x1="150.1" y1="120.61" x2="153.12" y2="122.19"/><line class="e" x1="151.15" y1="118.6" x2="154.23" y2="120.07"/><line class="e" x1="152.13" y1="116.56" x2="155.26" y2="117.92"/><line class="e" x1="153.03" y1="114.48" x2="156.21" y2="115.74"/><line class="e" x1="156.94" y1="79.05" x2="160.32" y2="78.47"/><line class="e" x1="156.51" y1="76.84" x2="159.86" y2="76.14"/><line class="e" x1="156" y1="74.64" x2="159.32" y2="73.82"/><line class="e" x1="155.41" y1="72.45" x2="158.7" y2="71.53"/><line class="e" x1="154.74" y1="70.29" x2="158" y2="69.26"/><line class="e" x1="154" y1="68.16" x2="157.22" y2="67.01"/><line class="e" x1="153.18" y1="66.05" x2="156.36" y2="64.79"/><line class="e" x1="152.28" y1="63.97" x2="155.42" y2="62.6"/><line class="e" x1="151.32" y1="61.92" x2="154.4" y2="60.45"/><line class="e" x1="150.28" y1="59.91" x2="153.31" y2="58.33"/><line class="e" x1="149.17" y1="57.93" x2="152.14" y2="56.25"/><line class="e" x1="147.99" y1="56" x2="150.9" y2="54.22"/><line class="e" x1="146.74" y1="54.1" x2="149.58" y2="52.22"/><line class="e" x1="145.42" y1="52.25" x2="148.2" y2="50.27"/><line class="e" x1="144.04" y1="50.44" x2="146.75" y2="48.37"/><line class="e" x1="142.6" y1="48.68" x2="145.23" y2="46.52"/><line class="e" x1="141.09" y1="46.98" x2="143.64" y2="44.73"/><line class="e" x1="139.53" y1="45.32" x2="142" y2="42.99"/><line class="e" x1="137.9" y1="43.72" x2="140.29" y2="41.3"/><line class="e" x1="136.23" y1="42.18" x2="138.52" y2="39.68"/><line class="e" x1="134.49" y1="40.69" x2="136.7" y2="38.12"/><line class="e" x1="132.71" y1="39.27" x2="134.82" y2="36.62"/><line class="e" x1="130.87" y1="37.9" x2="132.89" y2="35.19"/><line class="e" x1="128.99" y1="36.61" x2="130.91" y2="33.82"/><line class="e" x1="127.06" y1="35.37" x2="128.88" y2="32.52"/><line class="e" x1="125.09" y1="34.2" x2="126.81" y2="31.29"/><line class="e" x1="123.08" y1="33.1" x2="124.69" y2="30.14"/><line class="e" x1="121.03" y1="32.07" x2="122.54" y2="29.05"/><line class="e" x1="118.95" y1="31.11" x2="120.34" y2="28.04"/><line class="e" x1="116.83" y1="30.23" x2="118.12" y2="27.11"/><line class="e" x1="114.69" y1="29.41" x2="115.86" y2="26.25"/><line class="e" x1="112.51" y1="28.67" x2="113.57" y2="25.48"/><line class="e" x1="110.31" y1="28" x2="111.26" y2="24.78"/><line class="e" x1="108.09" y1="27.41" x2="108.92" y2="24.16"/><line class="e" x1="105.85" y1="26.9" x2="106.56" y2="23.61"/><line class="e" x1="103.59" y1="26.46" x2="104.18" y2="23.16"/><line class="e" x1="101.31" y1="26.1" x2="101.79" y2="22.78"/><line class="e" x1="99.03" y1="25.82" x2="99.39" y2="22.48"/><line class="e" x1="96.74" y1="25.62" x2="96.98" y2="22.27"/><line class="e" x1="94.44" y1="25.49" x2="94.56" y2="22.14"/><line class="e" x1="89.83" y1="25.48" x2="89.71" y2="22.12"/><line class="e" x1="87.53" y1="25.59" x2="87.29" y2="22.24"/><line class="e" x1="85.24" y1="25.78" x2="84.88" y2="22.44"/><line class="e" x1="82.95" y1="26.05" x2="82.48" y2="22.72"/><line class="f" x1="155.65" y1="79.27" x2="161.61" y2="78.24"/><line class="f" x1="152.76" y1="68.6" x2="158.45" y2="66.57"/><line class="f" x1="148.03" y1="58.57" x2="153.27" y2="55.61"/><line class="f" x1="141.59" y1="49.51" x2="146.23" y2="45.69"/><line class="f" x1="133.65" y1="41.68" x2="137.54" y2="37.13"/><line class="f" x1="124.43" y1="35.31" x2="127.46" y2="30.18"/><line class="f" x1="114.23" y1="30.62" x2="116.3" y2="25.04"/><line class="f" x1="103.35" y1="27.73" x2="104.4" y2="21.88"/><line class="f" x1="92.18" y1="26.63" x2="92.18" y2="21.04"/></g></g><g><path class="k" d="M92.71,1.06C42.53,1.06,1.85,40.92,1.85,90.09s40.68,89.03,90.85,89.03,90.85-39.86,90.85-89.03S142.89,1.06,92.71,1.06Zm44.84,101.5c1.15-3.96,1.77-8.14,1.77-12.47s-.62-8.46-1.76-12.41l29.16-8.07c1.87,6.51,2.88,13.38,2.88,20.48s-1.01,14.03-2.9,20.57l-29.16-8.11Z"/><line class="i" x1="92.71" y1="2.8" x2="92.71" y2="16.18"/><line class="i" x1="145.1" y1="19.43" x2="136.92" y2="30.46"/><line class="i" x1="177.48" y1="63.1" x2="164.24" y2="67.32"/><line class="i" x1="164.24" y1="112.87" x2="177.48" y2="117.09"/><line class="i" x1="145.1" y1="160.76" x2="136.92" y2="149.73"/><line class="i" x1="92.71" y1="177.37" x2="92.71" y2="163.99"/><line class="i" x1="40.32" y1="160.76" x2="48.5" y2="149.73"/><line class="i" x1="7.94" y1="117.08" x2="21.17" y2="112.87"/><line class="i" x1="7.94" y1="63.1" x2="21.17" y2="67.32"/><line class="i" x1="40.32" y1="19.43" x2="48.5" y2="30.46"/><line class="f" x1="103.88" y1="3.44" x2="102.69" y2="12.67"/><line class="f" x1="114.88" y1="5.5" x2="112.52" y2="14.5"/><line class="f" x1="125.52" y1="8.89" x2="122.03" y2="17.53"/><line class="f" x1="135.65" y1="13.56" x2="131.08" y2="21.71"/><line class="f" x1="153.72" y1="26.43" x2="147.23" y2="33.21"/><line class="f" x1="161.38" y1="34.42" x2="154.07" y2="40.35"/><line class="f" x1="167.96" y1="43.3" x2="159.95" y2="48.28"/><line class="f" x1="173.35" y1="52.91" x2="164.77" y2="56.87"/><line class="f" x1="181.66" y1="84.61" x2="172.19" y2="85.2"/><line class="f" x1="180.26" y1="73.73" x2="170.94" y2="75.47"/><line class="f" x1="181.66" y1="95.58" x2="172.19" y2="95"/><line class="f" x1="180.26" y1="106.46" x2="170.94" y2="104.72"/><line class="f" x1="173.35" y1="127.28" x2="164.77" y2="123.33"/><line class="f" x1="167.96" y1="136.9" x2="159.95" y2="131.91"/><line class="f" x1="161.38" y1="145.77" x2="154.07" y2="139.84"/><line class="f" x1="153.72" y1="153.76" x2="147.22" y2="146.99"/><line class="f" x1="135.64" y1="166.63" x2="131.07" y2="158.48"/><line class="f" x1="125.52" y1="171.3" x2="122.02" y2="162.66"/><line class="f" x1="114.87" y1="174.69" x2="112.51" y2="165.68"/><line class="f" x1="103.88" y1="176.75" x2="102.69" y2="167.52"/><line class="f" x1="81.53" y1="176.74" x2="82.72" y2="167.52"/><line class="f" x1="70.54" y1="174.69" x2="72.9" y2="165.68"/><line class="f" x1="59.9" y1="171.3" x2="63.39" y2="162.65"/><line class="f" x1="49.77" y1="166.63" x2="54.34" y2="158.48"/><line class="f" x1="31.69" y1="153.76" x2="38.19" y2="146.98"/><line class="f" x1="24.03" y1="145.76" x2="31.34" y2="139.84"/><line class="f" x1="17.45" y1="136.89" x2="25.47" y2="131.91"/><line class="f" x1="12.06" y1="127.28" x2="20.65" y2="123.32"/><line class="f" x1="5.16" y1="106.46" x2="14.48" y2="104.71"/><line class="f" x1="3.76" y1="95.58" x2="13.23" y2="94.99"/><line class="f" x1="3.76" y1="84.61" x2="13.23" y2="85.19"/><line class="f" x1="5.16" y1="73.73" x2="14.48" y2="75.47"/><line class="f" x1="12.06" y1="52.9" x2="20.65" y2="56.86"/><line class="f" x1="17.46" y1="43.29" x2="25.47" y2="48.27"/><line class="f" x1="24.03" y1="34.42" x2="31.35" y2="40.35"/><line class="f" x1="31.7" y1="26.42" x2="38.2" y2="33.2"/><line class="f" x1="49.77" y1="13.55" x2="54.35" y2="21.7"/><line class="f" x1="59.9" y1="8.88" x2="63.4" y2="17.53"/><line class="f" x1="70.55" y1="5.49" x2="72.91" y2="14.5"/><line class="f" x1="81.54" y1="3.44" x2="82.73" y2="12.67"/><g class="j"><path class="d" d="M89.3,26.07c0-1.23,.13-2.22,.39-2.97,.26-.75,.64-1.33,1.15-1.74,.51-.41,1.15-.61,1.92-.61,.57,0,1.07,.11,1.5,.34,.43,.23,.79,.55,1.07,.97s.5,.94,.66,1.55c.16,.61,.24,1.43,.24,2.46,0,1.22-.13,2.21-.38,2.96-.26,.75-.64,1.33-1.15,1.74-.51,.41-1.15,.61-1.93,.61-1.02,0-1.83-.36-2.41-1.08-.7-.87-1.05-2.28-1.05-4.24Zm1.34,0c0,1.71,.2,2.85,.61,3.42,.41,.57,.91,.85,1.51,.85s1.1-.28,1.51-.85c.41-.57,.61-1.71,.61-3.41s-.2-2.85-.61-3.42c-.41-.56-.92-.85-1.53-.85s-1.08,.25-1.44,.75c-.45,.63-.67,1.81-.67,3.52Z"/></g><g class="j"><path class="e" d="M89.3,26.07c0-1.23,.13-2.22,.39-2.97,.26-.75,.64-1.33,1.15-1.74,.51-.41,1.15-.61,1.92-.61,.57,0,1.07,.11,1.5,.34,.43,.23,.79,.55,1.07,.97s.5,.94,.66,1.55c.16,.61,.24,1.43,.24,2.46,0,1.22-.13,2.21-.38,2.96-.26,.75-.64,1.33-1.15,1.74-.51,.41-1.15,.61-1.93,.61-1.02,0-1.83-.36-2.41-1.08-.7-.87-1.05-2.28-1.05-4.24Zm1.34,0c0,1.71,.2,2.85,.61,3.42,.41,.57,.91,.85,1.51,.85s1.1-.28,1.51-.85c.41-.57,.61-1.71,.61-3.41s-.2-2.85-.61-3.42c-.41-.56-.92-.85-1.53-.85s-1.08,.25-1.44,.75c-.45,.63-.67,1.81-.67,3.52Z"/></g><g class="j"><path class="d" d="M78.63,68.32l4.08-10.42h1.52l4.35,10.42h-1.6l-1.24-3.16h-4.44l-1.17,3.16h-1.49Zm3.07-4.28h3.6l-1.11-2.88c-.34-.88-.59-1.6-.75-2.16-.13,.67-.33,1.33-.57,1.99l-1.17,3.06Z"/><path class="d" d="M89.64,68.32v-10.42h1.41v9.19h5.24v1.23h-6.64Z"/><path class="d" d="M99.56,68.32v-9.19h-3.5v-1.23h8.43v1.23h-3.52v9.19h-1.41Z"/></g><g class="j"><path class="g" d="M78.63,68.32l4.08-10.42h1.52l4.35,10.42h-1.6l-1.24-3.16h-4.44l-1.17,3.16h-1.49Zm3.07-4.28h3.6l-1.11-2.88c-.34-.88-.59-1.6-.75-2.16-.13,.67-.33,1.33-.57,1.99l-1.17,3.06Z"/><path class="g" d="M89.64,68.32v-10.42h1.41v9.19h5.24v1.23h-6.64Z"/><path class="g" d="M99.56,68.32v-9.19h-3.5v-1.23h8.43v1.23h-3.52v9.19h-1.41Z"/></g><g class="j"><path class="d" d="M131.99,44.11h-1.3v-8.15c-.31,.29-.73,.59-1.24,.88-.51,.29-.97,.51-1.37,.66v-1.24c.73-.34,1.37-.74,1.91-1.22s.93-.94,1.16-1.39h.84v10.46Z"/></g><g class="j"><path class="e" d="M131.99,44.11h-1.3v-8.15c-.31,.29-.73,.59-1.24,.88-.51,.29-.97,.51-1.37,.66v-1.24c.73-.34,1.37-.74,1.91-1.22s.93-.94,1.16-1.39h.84v10.46Z"/></g><g class="j"><path class="d" d="M159.07,66.1v1.23h-7.03c0-.31,.04-.6,.15-.89,.18-.47,.47-.93,.86-1.38,.39-.46,.96-.98,1.71-1.58,1.16-.93,1.94-1.66,2.34-2.21,.41-.54,.61-1.05,.61-1.54s-.19-.93-.55-1.28c-.37-.35-.85-.52-1.45-.52-.63,0-1.13,.18-1.51,.55-.38,.37-.57,.88-.57,1.54l-1.34-.13c.09-.98,.44-1.73,1.04-2.24,.6-.51,1.4-.77,2.41-.77s1.83,.28,2.42,.83c.59,.55,.89,1.24,.89,2.06,0,.42-.09,.83-.26,1.23-.17,.4-.46,.83-.87,1.27-.4,.45-1.07,1.06-2.01,1.83-.78,.64-1.29,1.08-1.51,1.31s-.41,.46-.55,.69h5.21Z"/></g><g class="j"><path class="e" d="M159.07,66.1v1.23h-7.03c0-.31,.04-.6,.15-.89,.18-.47,.47-.93,.86-1.38,.39-.46,.96-.98,1.71-1.58,1.16-.93,1.94-1.66,2.34-2.21,.41-.54,.61-1.05,.61-1.54s-.19-.93-.55-1.28c-.37-.35-.85-.52-1.45-.52-.63,0-1.13,.18-1.51,.55-.38,.37-.57,.88-.57,1.54l-1.34-.13c.09-.98,.44-1.73,1.04-2.24,.6-.51,1.4-.77,2.41-.77s1.83,.28,2.42,.83c.59,.55,.89,1.24,.89,2.06,0,.42-.09,.83-.26,1.23-.17,.4-.46,.83-.87,1.27-.4,.45-1.07,1.06-2.01,1.83-.78,.64-1.29,1.08-1.51,1.31s-.41,.46-.55,.69h5.21Z"/></g><g class="j"><path class="d" d="M152.21,120.37l1.3-.17c.15,.72,.41,1.25,.76,1.57,.36,.32,.8,.48,1.32,.48,.61,0,1.13-.21,1.56-.62,.42-.42,.63-.93,.63-1.55s-.2-1.07-.59-1.45c-.39-.38-.89-.57-1.49-.57-.25,0-.55,.05-.92,.14l.15-1.12c.09,0,.16,.01,.21,.01,.56,0,1.06-.14,1.5-.43,.45-.28,.67-.72,.67-1.31,0-.47-.16-.86-.49-1.17-.32-.31-.74-.46-1.25-.46s-.93,.16-1.27,.47c-.34,.31-.56,.78-.65,1.41l-1.31-.23c.16-.86,.52-1.52,1.09-1.99,.57-.47,1.27-.71,2.11-.71,.58,0,1.11,.12,1.6,.37,.49,.24,.86,.58,1.12,1,.26,.42,.39,.87,.39,1.34s-.12,.86-.37,1.23c-.25,.37-.61,.66-1.09,.88,.63,.14,1.12,.44,1.46,.88,.35,.45,.52,1.01,.52,1.68,0,.91-.34,1.68-1.02,2.31-.68,.63-1.53,.95-2.57,.95-.93,0-1.71-.27-2.32-.82-.62-.54-.97-1.25-1.05-2.12Z"/></g><g class="j"><path class="e" d="M152.21,120.37l1.3-.17c.15,.72,.41,1.25,.76,1.57,.36,.32,.8,.48,1.32,.48,.61,0,1.13-.21,1.56-.62,.42-.42,.63-.93,.63-1.55s-.2-1.07-.59-1.45c-.39-.38-.89-.57-1.49-.57-.25,0-.55,.05-.92,.14l.15-1.12c.09,0,.16,.01,.21,.01,.56,0,1.06-.14,1.5-.43,.45-.28,.67-.72,.67-1.31,0-.47-.16-.86-.49-1.17-.32-.31-.74-.46-1.25-.46s-.93,.16-1.27,.47c-.34,.31-.56,.78-.65,1.41l-1.31-.23c.16-.86,.52-1.52,1.09-1.99,.57-.47,1.27-.71,2.11-.71,.58,0,1.11,.12,1.6,.37,.49,.24,.86,.58,1.12,1,.26,.42,.39,.87,.39,1.34s-.12,.86-.37,1.23c-.25,.37-.61,.66-1.09,.88,.63,.14,1.12,.44,1.46,.88,.35,.45,.52,1.01,.52,1.68,0,.91-.34,1.68-1.02,2.31-.68,.63-1.53,.95-2.57,.95-.93,0-1.71-.27-2.32-.82-.62-.54-.97-1.25-1.05-2.12Z"/></g><g class="j"><path class="d" d="M132.29,145.51v-2.49h-4.61v-1.17l4.85-6.75h1.07v6.75h1.44v1.17h-1.44v2.49h-1.31Zm0-3.67v-4.7l-3.33,4.7h3.33Z"/></g><g class="j"><path class="e" d="M132.29,145.51v-2.49h-4.61v-1.17l4.85-6.75h1.07v6.75h1.44v1.17h-1.44v2.49h-1.31Zm0-3.67v-4.7l-3.33,4.7h3.33Z"/></g><g class="j"><path class="d" d="M89.36,156.31l1.37-.11c.1,.65,.34,1.14,.71,1.47,.37,.33,.82,.49,1.34,.49,.63,0,1.16-.23,1.6-.7,.43-.46,.65-1.08,.65-1.85s-.21-1.3-.63-1.73-.97-.63-1.64-.63c-.42,0-.8,.09-1.14,.28-.34,.19-.6,.43-.8,.73l-1.23-.16,1.03-5.35h5.29v1.22h-4.24l-.57,2.8c.64-.44,1.31-.65,2.01-.65,.93,0,1.71,.31,2.35,.94,.64,.63,.96,1.44,.96,2.43s-.28,1.76-.84,2.44c-.68,.84-1.61,1.26-2.79,1.26-.97,0-1.76-.27-2.37-.8s-.96-1.23-1.05-2.11Z"/></g><g class="j"><path class="e" d="M89.36,156.31l1.37-.11c.1,.65,.34,1.14,.71,1.47,.37,.33,.82,.49,1.34,.49,.63,0,1.16-.23,1.6-.7,.43-.46,.65-1.08,.65-1.85s-.21-1.3-.63-1.73-.97-.63-1.64-.63c-.42,0-.8,.09-1.14,.28-.34,.19-.6,.43-.8,.73l-1.23-.16,1.03-5.35h5.29v1.22h-4.24l-.57,2.8c.64-.44,1.31-.65,2.01-.65,.93,0,1.71,.31,2.35,.94,.64,.63,.96,1.44,.96,2.43s-.28,1.76-.84,2.44c-.68,.84-1.61,1.26-2.79,1.26-.97,0-1.76-.27-2.37-.8s-.96-1.23-1.05-2.11Z"/></g><g class="j"><path class="d" d="M56.56,138.23l-1.3,.1c-.12-.5-.28-.87-.49-1.09-.35-.37-.79-.55-1.3-.55-.42,0-.78,.11-1.1,.34-.41,.29-.73,.72-.97,1.29-.24,.56-.36,1.37-.37,2.41,.31-.47,.7-.82,1.15-1.04,.46-.23,.93-.34,1.43-.34,.87,0,1.61,.31,2.22,.94,.61,.63,.92,1.44,.92,2.43,0,.65-.14,1.26-.43,1.82-.29,.56-.68,.99-1.19,1.29-.5,.3-1.07,.45-1.71,.45-1.09,0-1.97-.39-2.66-1.18s-1.03-2.08-1.03-3.88c0-2.01,.38-3.48,1.14-4.39,.66-.8,1.55-1.19,2.68-1.19,.84,0,1.52,.23,2.06,.69,.53,.46,.85,1.09,.96,1.9Zm-5.33,4.49c0,.44,.09,.86,.29,1.26,.19,.4,.46,.71,.8,.92,.34,.21,.7,.32,1.08,.32,.55,0,1.02-.22,1.42-.65,.4-.44,.59-1.03,.59-1.78s-.2-1.29-.59-1.7c-.39-.41-.88-.62-1.48-.62s-1.09,.21-1.5,.62c-.41,.42-.62,.96-.62,1.63Z"/></g><g class="j"><path class="d" d="M27.39,105.93v-1.23h6.88v1c-.68,.71-1.35,1.64-2.01,2.81-.67,1.17-1.18,2.37-1.54,3.61-.26,.87-.43,1.83-.5,2.86h-1.34c.01-.82,.18-1.81,.49-2.97,.31-1.16,.77-2.28,1.35-3.36,.59-1.08,1.21-1.99,1.87-2.73h-5.21Z"/></g><g class="j"><path class="e" d="M27.39,105.93v-1.23h6.88v1c-.68,.71-1.35,1.64-2.01,2.81-.67,1.17-1.18,2.37-1.54,3.61-.26,.87-.43,1.83-.5,2.86h-1.34c.01-.82,.18-1.81,.49-2.97,.31-1.16,.77-2.28,1.35-3.36,.59-1.08,1.21-1.99,1.87-2.73h-5.21Z"/></g><g class="j"><path class="d" d="M28.13,70.03c-.54-.19-.94-.47-1.2-.83-.26-.36-.39-.79-.39-1.29,0-.76,.28-1.4,.83-1.91,.56-.52,1.3-.77,2.22-.77s1.67,.26,2.24,.79c.57,.53,.85,1.17,.85,1.93,0,.48-.13,.9-.39,1.26s-.65,.63-1.18,.83c.65,.21,1.15,.54,1.49,1.01,.34,.46,.51,1.02,.51,1.66,0,.89-.32,1.64-.96,2.25-.64,.61-1.49,.91-2.54,.91s-1.9-.3-2.54-.91c-.64-.61-.96-1.37-.96-2.28,0-.68,.18-1.25,.53-1.7,.35-.46,.85-.77,1.5-.93Zm-.68,2.64c0,.37,.09,.72,.26,1.06,.18,.34,.44,.61,.79,.79,.35,.19,.72,.28,1.12,.28,.62,0,1.14-.2,1.54-.59,.41-.39,.61-.89,.61-1.5s-.21-1.12-.63-1.53c-.42-.4-.94-.6-1.57-.6s-1.12,.2-1.53,.6c-.4,.4-.61,.9-.61,1.49Zm.42-4.81c0,.49,.16,.9,.49,1.21s.74,.47,1.26,.47,.92-.15,1.24-.46,.48-.69,.48-1.14-.17-.86-.5-1.18c-.33-.32-.74-.48-1.24-.48s-.91,.16-1.24,.47c-.33,.31-.49,.69-.49,1.12Z"/></g><g class="j"><path class="e" d="M28.13,70.03c-.54-.19-.94-.47-1.2-.83-.26-.36-.39-.79-.39-1.29,0-.76,.28-1.4,.83-1.91,.56-.52,1.3-.77,2.22-.77s1.67,.26,2.24,.79c.57,.53,.85,1.17,.85,1.93,0,.48-.13,.9-.39,1.26s-.65,.63-1.18,.83c.65,.21,1.15,.54,1.49,1.01,.34,.46,.51,1.02,.51,1.66,0,.89-.32,1.64-.96,2.25-.64,.61-1.49,.91-2.54,.91s-1.9-.3-2.54-.91c-.64-.61-.96-1.37-.96-2.28,0-.68,.18-1.25,.53-1.7,.35-.46,.85-.77,1.5-.93Zm-.68,2.64c0,.37,.09,.72,.26,1.06,.18,.34,.44,.61,.79,.79,.35,.19,.72,.28,1.12,.28,.62,0,1.14-.2,1.54-.59,.41-.39,.61-.89,.61-1.5s-.21-1.12-.63-1.53c-.42-.4-.94-.6-1.57-.6s-1.12,.2-1.53,.6c-.4,.4-.61,.9-.61,1.49Zm.42-4.81c0,.49,.16,.9,.49,1.21s.74,.47,1.26,.47,.92-.15,1.24-.46,.48-.69,.48-1.14-.17-.86-.5-1.18c-.33-.32-.74-.48-1.24-.48s-.91,.16-1.24,.47c-.33,.31-.49,.69-.49,1.12Z"/></g><g class="j"><path class="d" d="M51.7,41.12l1.25-.11c.11,.58,.31,1,.61,1.26s.68,.39,1.15,.39c.4,0,.75-.09,1.06-.27,.3-.18,.55-.42,.74-.72s.36-.71,.49-1.22c.13-.51,.2-1.03,.2-1.56,0-.06,0-.14,0-.26-.26,.41-.62,.74-1.07,.99-.45,.25-.94,.38-1.47,.38-.88,0-1.62-.31-2.23-.94-.61-.62-.91-1.45-.91-2.47s.32-1.91,.95-2.55c.63-.64,1.43-.97,2.39-.97,.69,0,1.32,.18,1.9,.55,.57,.36,1.01,.88,1.3,1.56,.3,.67,.45,1.65,.45,2.93s-.15,2.39-.44,3.18c-.29,.79-.73,1.39-1.32,1.8-.58,.41-1.26,.62-2.05,.62-.83,0-1.51-.23-2.04-.68-.53-.45-.84-1.09-.95-1.91Zm5.34-4.6c0-.73-.2-1.32-.6-1.75-.4-.43-.88-.65-1.44-.65s-1.08,.23-1.51,.7c-.43,.46-.65,1.07-.65,1.8,0,.66,.2,1.2,.61,1.62,.41,.42,.91,.62,1.51,.62s1.1-.21,1.49-.62c.39-.41,.58-.99,.58-1.72Z"/></g><g class="j"><path class="e" d="M51.7,41.12l1.25-.11c.11,.58,.31,1,.61,1.26s.68,.39,1.15,.39c.4,0,.75-.09,1.06-.27,.3-.18,.55-.42,.74-.72s.36-.71,.49-1.22c.13-.51,.2-1.03,.2-1.56,0-.06,0-.14,0-.26-.26,.41-.62,.74-1.07,.99-.45,.25-.94,.38-1.47,.38-.88,0-1.62-.31-2.23-.94-.61-.62-.91-1.45-.91-2.47s.32-1.91,.95-2.55c.63-.64,1.43-.97,2.39-.97,.69,0,1.32,.18,1.9,.55,.57,.36,1.01,.88,1.3,1.56,.3,.67,.45,1.65,.45,2.93s-.15,2.39-.44,3.18c-.29,.79-.73,1.39-1.32,1.8-.58,.41-1.26,.62-2.05,.62-.83,0-1.51-.23-2.04-.68-.53-.45-.84-1.09-.95-1.91Zm5.34-4.6c0-.73-.2-1.32-.6-1.75-.4-.43-.88-.65-1.44-.65s-1.08,.23-1.51,.7c-.43,.46-.65,1.07-.65,1.8,0,.66,.2,1.2,.61,1.62,.41,.42,.91,.62,1.51,.62s1.1-.21,1.49-.62c.39-.41,.58-.99,.58-1.72Z"/></g><g><path class="h" d="M77.22,115.59l36.54,22.44c1.82-.77,3.59-1.64,5.31-2.6l-39.25-24.11-2.59,4.27Z"/><path class="h" d="M71.82,124.46l28.2,17.32c2.44-.33,4.83-.82,7.16-1.46l-32.76-20.12-2.59,4.27Z"/><path class="h" d="M101.26,112.31c-2.23,.83-4.61,1.35-7.1,1.5l20.6,12.65-5.68-9.35-7.82-4.8Z"/><path class="h" d="M66.43,133.34l10.95,6.73c4.16,1.22,8.53,1.96,13.04,2.15l-21.4-13.15-2.59,4.27Z"/><path class="d" d="M65.46,134.92c3.7,2.17,7.7,3.9,11.92,5.14l-10.95-6.73-.96,1.59Z"/><path class="d" d="M69.02,129.07l21.4,13.15c.76,.03,1.52,.05,2.28,.05,2.48,0,4.92-.17,7.31-.49l-28.2-17.32-2.8,4.61Z"/><path class="d" d="M74.42,120.19l32.76,20.12c2.26-.62,4.45-1.39,6.58-2.29l-36.54-22.44-2.8,4.61Z"/><path class="d" d="M92.71,113.86c-4.53,0-8.77-1.23-12.39-3.37l-.51,.84,39.25,24.11c.29-.16,.57-.32,.86-.48l-5.16-8.49-20.6-12.65c-.48,.03-.96,.05-1.45,.05Z"/><path class="d" d="M105.06,110.5c-1.2,.71-2.48,1.3-3.81,1.8l7.82,4.8-4.01-6.6Z"/></g><g class="j"><path class="d" d="M98.92,21.04v-4.58h3.16v.54h-2.54v1.42h2.19v.54h-2.19v2.08h-.62Z"/><path class="d" d="M102.89,21.04v-4.58h3.38v.54h-2.76v1.4h2.59v.54h-2.59v1.56h2.87v.54h-3.49Z"/><path class="d" d="M107.25,21.04v-4.58h3.38v.54h-2.76v1.4h2.59v.54h-2.59v1.56h2.87v.54h-3.49Z"/><path class="d" d="M112.78,21.04v-4.04h-1.54v-.54h3.71v.54h-1.55v4.04h-.62Z"/></g><g class="j"><path class="d" d="M79.69,21.04h-.57v-3.59c-.14,.13-.32,.26-.54,.39-.22,.13-.43,.23-.6,.29v-.54c.32-.15,.6-.33,.84-.54s.41-.42,.51-.61h.37v4.6Z"/><path class="d" d="M81.16,18.78c0-.54,.06-.98,.17-1.31,.11-.33,.28-.59,.51-.76,.22-.18,.51-.27,.85-.27,.25,0,.47,.05,.66,.15,.19,.1,.34,.24,.47,.43,.12,.19,.22,.41,.29,.68s.11,.63,.11,1.08c0,.54-.06,.97-.17,1.3-.11,.33-.28,.59-.51,.77-.22,.18-.51,.27-.85,.27-.45,0-.8-.16-1.06-.48-.31-.38-.46-1-.46-1.86Zm.59,0c0,.75,.09,1.25,.27,1.5s.4,.37,.67,.37,.49-.12,.67-.38c.18-.25,.27-.75,.27-1.5s-.09-1.26-.27-1.5c-.18-.25-.4-.37-.67-.37s-.47,.11-.63,.33c-.2,.28-.3,.79-.3,1.55Z"/><path class="d" d="M84.8,18.78c0-.54,.06-.98,.17-1.31,.11-.33,.28-.59,.51-.76,.22-.18,.51-.27,.85-.27,.25,0,.47,.05,.66,.15,.19,.1,.34,.24,.47,.43,.12,.19,.22,.41,.29,.68s.11,.63,.11,1.08c0,.54-.06,.97-.17,1.3-.11,.33-.28,.59-.51,.77-.22,.18-.51,.27-.85,.27-.45,0-.8-.16-1.06-.48-.31-.38-.46-1-.46-1.86Zm.59,0c0,.75,.09,1.25,.27,1.5s.4,.37,.67,.37,.49-.12,.67-.38c.18-.25,.27-.75,.27-1.5s-.09-1.26-.27-1.5c-.18-.25-.4-.37-.67-.37s-.47,.11-.63,.33c-.2,.28-.3,.79-.3,1.55Z"/></g><g class="j"><path class="d" d="M80.32,53.77h-.57v-3.59c-.14,.13-.32,.26-.54,.39-.22,.13-.43,.23-.6,.29v-.54c.32-.15,.6-.33,.84-.54s.41-.42,.51-.61h.37v4.6Z"/><path class="d" d="M81.79,51.51c0-.54,.06-.98,.17-1.31,.11-.33,.28-.59,.51-.76,.22-.18,.51-.27,.85-.27,.25,0,.47,.05,.66,.15,.19,.1,.34,.24,.47,.43,.12,.19,.22,.41,.29,.68s.11,.63,.11,1.08c0,.54-.06,.97-.17,1.3-.11,.33-.28,.59-.51,.77-.22,.18-.51,.27-.85,.27-.45,0-.8-.16-1.06-.48-.31-.38-.46-1-.46-1.86Zm.59,0c0,.75,.09,1.25,.27,1.5s.4,.37,.67,.37,.49-.12,.67-.38c.18-.25,.27-.75,.27-1.5s-.09-1.26-.27-1.5c-.18-.25-.4-.37-.67-.37s-.47,.11-.63,.33c-.2,.28-.3,.79-.3,1.55Z"/><path class="d" d="M85.43,51.51c0-.54,.06-.98,.17-1.31,.11-.33,.28-.59,.51-.76,.22-.18,.51-.27,.85-.27,.25,0,.47,.05,.66,.15,.19,.1,.34,.24,.47,.43,.12,.19,.22,.41,.29,.68s.11,.63,.11,1.08c0,.54-.06,.97-.17,1.3-.11,.33-.28,.59-.51,.77-.22,.18-.51,.27-.85,.27-.45,0-.8-.16-1.06-.48-.31-.38-.46-1-.46-1.86Zm.59,0c0,.75,.09,1.25,.27,1.5s.4,.37,.67,.37,.49-.12,.67-.38c.18-.25,.27-.75,.27-1.5s-.09-1.26-.27-1.5c-.18-.25-.4-.37-.67-.37s-.47,.11-.63,.33c-.2,.28-.3,.79-.3,1.55Z"/><path class="d" d="M89.06,51.51c0-.54,.06-.98,.17-1.31,.11-.33,.28-.59,.51-.76,.22-.18,.51-.27,.85-.27,.25,0,.47,.05,.66,.15,.19,.1,.34,.24,.47,.43,.12,.19,.22,.41,.29,.68s.11,.63,.11,1.08c0,.54-.06,.97-.17,1.3-.11,.33-.28,.59-.51,.77-.22,.18-.51,.27-.85,.27-.45,0-.8-.16-1.06-.48-.31-.38-.46-1-.46-1.86Zm.59,0c0,.75,.09,1.25,.27,1.5s.4,.37,.67,.37,.49-.12,.67-.38c.18-.25,.27-.75,.27-1.5s-.09-1.26-.27-1.5c-.18-.25-.4-.37-.67-.37s-.47,.11-.63,.33c-.2,.28-.3,.79-.3,1.55Z"/><path class="d" d="M94.78,53.77v-4.58h3.16v.54h-2.54v1.42h2.19v.54h-2.19v2.08h-.62Z"/><path class="d" d="M98.75,53.77v-4.58h3.38v.54h-2.76v1.4h2.59v.54h-2.59v1.56h2.87v.54h-3.49Z"/><path class="d" d="M103.11,53.77v-4.58h3.38v.54h-2.76v1.4h2.59v.54h-2.59v1.56h2.87v.54h-3.49Z"/><path class="d" d="M108.64,53.77v-4.04h-1.54v-.54h3.71v.54h-1.55v4.04h-.62Z"/></g><g class="j" transform="matrix(1 0 0 1 104.334 191.915)"><g class="j"><path class="d" d="M39.89,83.63l.67,.17c-.14,.54-.4,.96-.76,1.24-.37,.29-.82,.43-1.35,.43s-1-.11-1.34-.33c-.34-.22-.61-.54-.79-.95s-.27-.86-.27-1.34c0-.52,.1-.98,.3-1.36s.49-.68,.87-.88c.37-.2,.79-.3,1.24-.3,.51,0,.94,.13,1.29,.38,.35,.25,.59,.61,.73,1.07l-.66,.15c-.12-.36-.29-.63-.52-.79-.22-.17-.51-.25-.85-.25-.39,0-.72,.09-.98,.28-.26,.18-.45,.43-.56,.74-.11,.31-.16,.63-.16,.96,0,.42,.06,.8,.19,1.11,.13,.32,.32,.55,.59,.71,.27,.16,.56,.24,.87,.24,.38,0,.7-.11,.96-.32,.26-.21,.44-.53,.53-.95Z"/><path class="d" d="M40.84,85.39l1.96-5h.73l2.09,5h-.77l-.59-1.51h-2.13l-.56,1.51h-.72Zm1.47-2.05h1.73l-.53-1.38c-.16-.42-.28-.77-.36-1.04-.06,.32-.16,.64-.27,.96l-.56,1.47Z"/><path class="d" d="M46.13,85.39v-5h.67v4.41h2.51v.59h-3.19Z"/><path class="d" d="M50.23,85.39v-5h.67v5h-.67Z"/><path class="d" d="M52.07,85.39v-5h1.91c.39,0,.7,.05,.94,.15,.24,.1,.42,.26,.55,.47s.2,.43,.2,.66c0,.21-.06,.42-.18,.6s-.3,.34-.54,.46c.31,.09,.55,.24,.71,.45,.17,.21,.25,.47,.25,.76,0,.23-.05,.45-.15,.65-.1,.2-.23,.36-.37,.47s-.33,.19-.56,.25c-.22,.06-.5,.08-.82,.08h-1.95Zm.67-2.9h1.1c.3,0,.51-.02,.64-.06,.17-.05,.3-.13,.39-.25,.09-.12,.13-.26,.13-.44s-.04-.31-.12-.44c-.08-.13-.2-.21-.35-.26s-.41-.07-.78-.07h-1.02v1.51Zm0,2.31h1.27c.22,0,.37,0,.46-.02,.16-.03,.29-.07,.39-.14,.1-.06,.19-.16,.26-.28s.1-.26,.1-.42c0-.19-.05-.35-.15-.49s-.23-.23-.41-.29-.42-.08-.75-.08h-1.18v1.72Z"/><path class="d" d="M56.86,85.39v-5h2.26c.46,0,.8,.04,1.04,.13,.24,.09,.43,.25,.57,.48s.21,.48,.21,.75c0,.35-.12,.65-.35,.9-.23,.24-.6,.4-1.09,.46,.18,.08,.31,.17,.41,.25,.2,.18,.38,.4,.56,.67l.89,1.36h-.85l-.68-1.04c-.2-.3-.36-.53-.49-.69-.13-.16-.24-.27-.34-.33-.1-.06-.2-.11-.31-.13-.08-.02-.2-.02-.38-.02h-.78v2.22h-.67Zm.67-2.79h1.45c.31,0,.55-.03,.72-.09s.31-.16,.4-.3,.14-.29,.14-.45c0-.24-.09-.43-.26-.58-.18-.15-.45-.23-.83-.23h-1.62v1.65Z"/><path class="d" d="M61.44,85.39l1.96-5h.73l2.09,5h-.77l-.59-1.51h-2.13l-.56,1.51h-.72Zm1.47-2.05h1.73l-.53-1.38c-.16-.42-.28-.77-.36-1.04-.06,.32-.16,.64-.27,.96l-.56,1.47Z"/><path class="d" d="M67.52,85.39v-4.41h-1.68v-.59h4.04v.59h-1.69v4.41h-.68Z"/><path class="d" d="M70.59,85.39v-5h3.69v.59h-3.01v1.53h2.82v.59h-2.82v1.7h3.13v.59h-3.81Z"/><path class="d" d="M75.33,85.39v-5h1.76c.4,0,.7,.02,.91,.07,.29,.07,.54,.19,.75,.36,.27,.22,.47,.51,.6,.85,.13,.35,.2,.74,.2,1.19,0,.38-.05,.72-.14,1.01-.09,.29-.21,.54-.35,.73-.14,.19-.3,.34-.46,.45-.17,.11-.37,.19-.61,.25-.24,.06-.51,.08-.82,.08h-1.84Zm.68-.59h1.09c.34,0,.6-.03,.79-.09,.19-.06,.34-.15,.46-.26,.16-.16,.28-.37,.37-.63,.09-.26,.13-.59,.13-.96,0-.52-.09-.92-.26-1.21-.18-.28-.39-.47-.64-.56-.18-.07-.47-.1-.87-.1h-1.07v3.82Z"/></g><g class="j"><path class="d" d="M52.07,92.37v-4.41h-1.68v-.59h4.04v.59h-1.69v4.41h-.68Z"/><path class="d" d="M54.79,89.94c0-.83,.23-1.48,.68-1.95,.46-.47,1.04-.7,1.76-.7,.47,0,.9,.11,1.27,.33s.67,.53,.87,.92,.3,.84,.3,1.34-.1,.96-.31,1.36c-.21,.4-.5,.7-.89,.91-.38,.21-.8,.31-1.24,.31-.48,0-.91-.11-1.29-.34-.38-.23-.67-.54-.86-.93-.19-.39-.29-.81-.29-1.25Zm.7,.01c0,.6,.17,1.08,.5,1.42,.33,.35,.75,.52,1.25,.52s.93-.18,1.25-.53c.33-.35,.49-.85,.49-1.49,0-.41-.07-.76-.21-1.07s-.35-.54-.62-.71-.57-.25-.91-.25c-.48,0-.89,.16-1.23,.48-.34,.32-.52,.86-.52,1.61Z"/></g><g class="j"><path class="d" d="M40.44,98.76v.59h-3.37c0-.15,.02-.29,.07-.43,.09-.22,.22-.45,.41-.67,.19-.22,.46-.47,.82-.76,.55-.45,.93-.8,1.12-1.06,.19-.26,.29-.51,.29-.74s-.09-.45-.27-.62c-.18-.17-.41-.25-.69-.25-.3,0-.54,.09-.72,.27-.18,.18-.27,.42-.28,.74l-.64-.06c.04-.47,.21-.83,.5-1.08,.29-.25,.67-.37,1.16-.37s.88,.13,1.16,.4c.29,.27,.43,.6,.43,.99,0,.2-.04,.4-.12,.59s-.22,.4-.42,.61-.52,.51-.97,.88c-.38,.31-.62,.52-.72,.63s-.2,.22-.26,.33h2.5Z"/><path class="d" d="M41.11,98.04l.66-.05c.05,.31,.16,.55,.34,.71s.39,.24,.64,.24c.3,0,.56-.11,.77-.33,.21-.22,.31-.52,.31-.89s-.1-.63-.3-.83c-.2-.2-.46-.3-.79-.3-.2,0-.38,.04-.55,.13-.16,.09-.29,.21-.38,.35l-.59-.08,.49-2.57h2.54v.59h-2.04l-.27,1.34c.31-.21,.63-.31,.96-.31,.45,0,.82,.15,1.13,.45,.31,.3,.46,.69,.46,1.17s-.13,.84-.4,1.17c-.33,.4-.77,.61-1.34,.61-.46,0-.84-.13-1.14-.38-.29-.25-.46-.59-.5-1.01Z"/><path class="d" d="M47.06,96.89c0-.59,.06-1.07,.19-1.43,.12-.36,.31-.64,.55-.83,.25-.2,.55-.29,.92-.29,.27,0,.51,.05,.72,.16,.21,.11,.38,.26,.51,.47,.13,.2,.24,.45,.32,.74,.08,.29,.12,.69,.12,1.18,0,.59-.06,1.06-.18,1.42s-.31,.64-.55,.83c-.24,.2-.55,.29-.93,.29-.49,0-.88-.17-1.16-.52-.34-.42-.5-1.09-.5-2.03Zm.64,0c0,.82,.1,1.37,.29,1.64,.2,.27,.44,.41,.73,.41s.53-.14,.73-.41c.2-.27,.29-.82,.29-1.64s-.1-1.37-.29-1.64c-.2-.27-.44-.41-.73-.41s-.52,.12-.69,.36c-.22,.3-.32,.87-.32,1.69Z"/><path class="d" d="M51.02,96.89c0-.59,.06-1.07,.19-1.43,.12-.36,.31-.64,.55-.83,.25-.2,.55-.29,.92-.29,.27,0,.51,.05,.72,.16,.21,.11,.38,.26,.51,.47,.13,.2,.24,.45,.32,.74,.08,.29,.12,.69,.12,1.18,0,.59-.06,1.06-.18,1.42s-.31,.64-.55,.83c-.24,.2-.55,.29-.93,.29-.49,0-.88-.17-1.16-.52-.34-.42-.5-1.09-.5-2.03Zm.64,0c0,.82,.1,1.37,.29,1.64,.2,.27,.44,.41,.73,.41s.53-.14,.73-.41c.2-.27,.29-.82,.29-1.64s-.1-1.37-.29-1.64c-.2-.27-.44-.41-.73-.41s-.52,.12-.69,.36c-.22,.3-.32,.87-.32,1.69Z"/><path class="d" d="M54.98,96.89c0-.59,.06-1.07,.19-1.43,.12-.36,.31-.64,.55-.83,.25-.2,.55-.29,.92-.29,.27,0,.51,.05,.72,.16,.21,.11,.38,.26,.51,.47,.13,.2,.24,.45,.32,.74,.08,.29,.12,.69,.12,1.18,0,.59-.06,1.06-.18,1.42s-.31,.64-.55,.83c-.24,.2-.55,.29-.93,.29-.49,0-.88-.17-1.16-.52-.34-.42-.5-1.09-.5-2.03Zm.64,0c0,.82,.1,1.37,.29,1.64,.2,.27,.44,.41,.73,.41s.53-.14,.73-.41c.2-.27,.29-.82,.29-1.64s-.1-1.37-.29-1.64c-.2-.27-.44-.41-.73-.41s-.52,.12-.69,.36c-.22,.3-.32,.87-.32,1.69Z"/><path class="d" d="M61.22,99.35v-5h3.44v.59h-2.77v1.55h2.39v.59h-2.39v2.27h-.67Z"/><path class="d" d="M65.55,99.35v-5h3.69v.59h-3.01v1.53h2.82v.59h-2.82v1.7h3.13v.59h-3.81Z"/><path class="d" d="M70.31,99.35v-5h3.69v.59h-3.01v1.53h2.82v.59h-2.82v1.7h3.13v.59h-3.81Z"/><path class="d" d="M76.34,99.35v-4.41h-1.68v-.59h4.04v.59h-1.69v4.41h-.68Z"/></g></g></g></g></g></g></svg>